<?xml version="1.0" encoding="utf-8"?>
<!-- Generator: Adobe Illustrator 27.5.0, SVG Export Plug-In . SVG Version: 6.00 Build 0)  -->
<svg version="1.1" xmlns="http://www.w3.org/2000/svg" xmlns:xlink="http://www.w3.org/1999/xlink" x="0px" y="0px"
	 viewBox="0 0 1502 1122" style="enable-background:new 0 0 1502 1122;" xml:space="preserve">
<g id="background">
	<rect x="-1" style="fill:#FFFFFF;" width="1502" height="1122"/>
</g>
<g id="shadow">
	<path style="opacity:0.12;fill:#606060;" d="M1367.684,957.31c-95.104-52.259-427.968-20.903-427.968-20.903
		c-23.751,3.2-44.235,6.367-61.767,9.491c-0.004,0-96.345,15.332-142.707,8.799c-37.103-5.228-138.911-12.125-192.726,1.397
		c-17.943-4.251-42.788-8.631-75.92-13.095c0,0-254.782-24-327.576,16c-72.795,40,158.329,48,224.754,51
		c31.769,1.435,121.19-5.137,174.993-16.541c41.941,8.034,118.414,6.771,159.621,1.739c64.18-7.837,96.407,0.418,168.823,11.308
		c70.582,12.299,169.382,19.126,206.839,17.435C1160.832,1020.021,1462.788,1009.569,1367.684,957.31z"/>
</g>
<g id="object">
	<g>
		<polygon style="fill:#D1AA95;" points="1253,383 1267,406 1283,513 1333,641 1308,652 1238,537 1219,406 		"/>
		<g>
			<g>
				<g>
					<path style="fill:#334C60;" d="M1000.525,976.665h-499.71c-10.766,0-19.494-8.728-19.494-19.494V138.494
						c0-10.766,8.728-19.494,19.494-19.494h499.71c10.766,0,19.494,8.728,19.494,19.494v818.677
						C1020.019,967.937,1011.291,976.665,1000.525,976.665z"/>
					<rect x="509.132" y="164.503" style="fill:#D7E6ED;" width="481.966" height="732.454"/>
					<rect x="721.814" y="931.362" style="fill:#FFFFFF;" width="57.711" height="13.318"/>
				</g>
				<polygon style="opacity:0.04;" points="503,266.22 503,897 984.966,897 				"/>
			</g>
		</g>
		<g>
			<path style="fill:#C33258;" d="M1101.011,434.366c1.93,0,1.934-3,0-3C1099.081,431.366,1099.078,434.366,1101.011,434.366
				L1101.011,434.366z"/>
		</g>
		<rect x="536" y="191" style="fill:#E9F1F5;" width="429" height="94"/>
		<g>
			<g>
				<g>
					<polygon style="fill:#962744;" points="974.964,184.38 939.367,233.961 952.872,157.281 1236.23,43.141 					"/>
					<polygon style="fill:#C33258;" points="952.834,157.874 1120.16,105.494 973.963,185.774 939.717,233.146 					"/>
					<polygon style="fill:#962744;" points="939.367,233.961 974.031,185.074 1235.525,43.831 					"/>
					<g>
						<polygon style="fill:none;" points="1237.574,43 1236.23,43.141 1235.525,43.831 						"/>
						<polygon style="fill:#698078;" points="1235.525,43.831 1236.23,43.141 1232.848,44.917 						"/>
						<polygon style="fill:#EFC1BB;" points="1235.525,43.831 1232.848,44.917 974.154,184.748 973.865,184.859 1035.347,263.466 
													"/>
						<polygon style="fill:#EFC1BB;" points="1236.23,43.141 900,90.418 952.458,157.489 1232.848,44.917 						"/>
					</g>
				</g>
			</g>
		</g>
		<g>
			<path style="fill:#5A676D;" d="M737.854,218.076v36.794h-4.885v-26.813l-12.317,26.813h-3.133l-12.371-26.813v26.813h-4.831
				v-36.794h4.938l13.857,30.158l13.805-30.158H737.854z"/>
			<path style="fill:#5A676D;" d="M747.888,251.074c-2.654-2.849-3.982-6.495-3.982-10.938c0-4.442,1.318-8.035,3.956-10.778
				c2.637-2.743,5.955-4.115,9.955-4.115c2.477,0,4.646,0.584,6.504,1.752c1.858,1.168,3.266,2.69,4.221,4.566v-5.84h4.885v29.149
				h-4.885v-5.947c-0.955,1.911-2.362,3.46-4.221,4.646c-1.858,1.186-4.026,1.779-6.504,1.779
				C753.852,255.348,750.542,253.923,747.888,251.074z M765.648,248.233c1.929-1.982,2.893-4.619,2.893-7.911
				c0-3.292-0.965-5.928-2.893-7.911c-1.93-1.982-4.247-2.973-6.955-2.973s-5.026,0.956-6.955,2.867
				c-1.93,1.911-2.893,4.513-2.893,7.805c0,3.292,0.973,5.965,2.92,8.017c1.946,2.053,4.265,3.079,6.955,3.079
				C761.408,251.206,763.718,250.216,765.648,248.233z"/>
			<path style="fill:#5A676D;" d="M786.169,220.093c-0.638,0.637-1.416,0.955-2.336,0.955c-0.921,0-1.691-0.319-2.31-0.955
				c-0.62-0.637-0.93-1.415-0.93-2.336c0-0.92,0.318-1.699,0.956-2.336c0.637-0.637,1.407-0.956,2.31-0.956
				c0.902,0,1.672,0.319,2.31,0.956c0.637,0.637,0.955,1.416,0.955,2.336C787.124,218.678,786.806,219.456,786.169,220.093z
				 M781.391,254.87v-29.149h4.831v29.149H781.391z"/>
			<path style="fill:#5A676D;" d="M794.187,254.87v-39.29h4.831v39.29H794.187z"/>
		</g>
		<g>
			<rect x="536" y="309" style="fill:#E9F1F5;" width="429" height="97"/>
			<rect x="563" y="340" style="fill:#FFFFFF;" width="35" height="35"/>
			<rect x="655" y="340" style="fill:#FFFFFF;" width="252" height="6"/>
			<rect x="655" y="366" style="fill:#FFFFFF;" width="252" height="6"/>
		</g>
		<g>
			<rect x="536" y="411" style="fill:#E9F1F5;" width="429" height="97"/>
			<rect x="563" y="442" style="fill:#FFFFFF;" width="35" height="35"/>
			<rect x="655" y="442" style="fill:#FFFFFF;" width="252" height="6"/>
			<rect x="655" y="468" style="fill:#FFFFFF;" width="252" height="6"/>
		</g>
		<g>
			<rect x="536" y="513" style="fill:#E9F1F5;" width="429" height="97"/>
			<rect x="563" y="544" style="fill:#FFFFFF;" width="35" height="35"/>
			<rect x="655" y="544" style="fill:#FFFFFF;" width="252" height="6"/>
			<rect x="655" y="570" style="fill:#FFFFFF;" width="252" height="6"/>
		</g>
		<g>
			<rect x="536" y="615" style="fill:#E9F1F5;" width="429" height="97"/>
			<rect x="563" y="646" style="fill:#FFFFFF;" width="35" height="35"/>
			<rect x="655" y="646" style="fill:#FFFFFF;" width="252" height="6"/>
			<rect x="655" y="672" style="fill:#FFFFFF;" width="252" height="6"/>
		</g>
		<g>
			<rect x="536" y="717" style="fill:#E9F1F5;" width="429" height="97"/>
			<rect x="563" y="748" style="fill:#FFFFFF;" width="35" height="35"/>
			<rect x="655" y="748" style="fill:#FFFFFF;" width="252" height="6"/>
			<rect x="655" y="774" style="fill:#FFFFFF;" width="252" height="6"/>
		</g>
		<g>
			<rect x="536" y="819" style="fill:#E9F1F5;" width="429" height="78"/>
			<rect x="563" y="850" style="fill:#FFFFFF;" width="35" height="35"/>
			<rect x="655" y="850" style="fill:#FFFFFF;" width="252" height="6"/>
			<rect x="655" y="876" style="fill:#FFFFFF;" width="252" height="6"/>
		</g>
		<rect x="973" y="309" style="fill:#FFFFFF;" width="6" height="128"/>
		<g>
			<g>
				<g>
					<polygon style="fill:#59595B;" points="385.888,613.467 416.329,777.973 414.519,957.192 385.161,959.446 356.031,791.048 
						294.069,613.335 					"/>
				</g>
				<g>
					<polygon style="fill:#59595B;" points="349.416,583.056 321.122,768.059 278.499,959.942 250.992,959.294 254.113,765.875 
						238.178,588.303 					"/>
				</g>
				<g>
					<g>
						<path style="fill:#AEC4C4;" d="M206.777,639.986c-0.802,17.178-0.948,40.354,4.92,41.361c1.1,0.189,2.175-0.394,3.156-0.958
							c10.357-5.957,17.803-14.536,28.008-20.286c10.697-6.027,22.829-9.055,34.701-11.083c17.756-3.137,35.865-4.89,53.865-4.754
							c14.151,0.107,28.324,1.843,42.372,3.538c11.687,1.411,22.484,5.599,34.446,4.995c12.26-0.619,24.425-4.492,35.078-11.411
							c0.39-0.253,0.803-0.542,0.975-1.009c0.188-0.511,0.034-1.088-0.12-1.61c-2.29-7.742-3.88-15.391-8.246-21.869
							c-4.875-7.235-8.231-16.35-11.675-24.528c-7.177-17.044-13.888-34.885-18.736-52.966
							c-7.401-24.599-15.967-48.597-23.097-73.27c-4.942-17.101-9.401-34.492-16.295-50.765
							c-5.398-12.741-15.128-31.405-27.299-37.281c-4.12-1.989-8.716-2.283-13.204-2.549c-13.614-0.808-27.229-1.617-40.843-2.425
							c-4.963-0.295-10.127-0.552-14.718,1.619c-6.879,3.253-10.932,11.136-14.487,18.497
							c-15.943,33.006-26.507,68.771-32.885,105.777c-3.33,19.322-6.451,38.688-8.998,58.143
							c-2.843,21.71-4.983,43.537-5.904,65.433C207.687,625.016,207.158,631.824,206.777,639.986z"/>
					</g>
				</g>
				<g>
					<g>
						<path style="fill:#FFFFFF;" d="M302.943,449.036c0.303,7.735-1.007,15.432-2.314,23.066
							c-7.956,46.488-26.658,132.668-34.614,179.156c36.596,0.674,91.172-0.28,127.769,0.394
							c-0.851-17.522-8.933-73.107-9.784-90.629c-0.545-11.233-1.095-22.505-3.163-33.57c-3.336-17.848-10.541-34.758-17.696-51.508
							c-13.221-30.949-26.442-61.899-39.663-92.848c-0.707-1.655-1.453-3.365-2.806-4.58c-1.62-1.454-3.871-1.988-6.026-2.423
							c-10.41-2.101-22.178-3.958-32.731-2.701c-2.887,9.497,6.89,8.302,10.241,17.3
							C297.033,403.787,302.389,434.905,302.943,449.036z"/>
					</g>
				</g>
				<g>
					<polygon style="fill:#3A3029;" points="410.913,957.106 431.055,965.238 430.087,976.714 388.353,977.667 386.731,959.37 					
						"/>
				</g>
				<g>
					<polygon style="fill:#3A3029;" points="252.493,955.935 231.18,970.164 235.791,983.502 278.344,975.551 276.468,958.745 					
						"/>
				</g>
				<g>
					<path style="fill:#3A3029;" d="M351.517,333.566c-5.93,9.975-9.996,12.483-20.066,19.816
						c1.887-9.818,4.058-19.884,5.945-29.702c3.299,1.698,6.598,3.397,9.898,5.095C349.299,329.807,351.599,331.313,351.517,333.566
						z"/>
					<g>
						<g>
							<path style="fill:#EACDB0;" d="M331.986,354.31c2.884-9.773,11.185-23.036,6.354-32.926
								c-5.348-10.949-18.596-15.649-30.76-16.372c-9.688-0.576-20.636,1.35-26.295,9.234c-5.465,7.613-4.14,17.98-2.577,27.22
								c0.734,4.337,0.334,10.481,2.86,14.148c3.494,5.073,11.079,7.205,11.079,7.205l0,0c1.999,0.562,3.034,2.767,2.189,4.664
								l-2.305,5.172c0,0-2.185,3.665,3.59,6.157l0,0c4.698,0.609,9.396,1.218,14.094,1.827c2.191-4.162,1.834-10.077,5.878-12.48
								c2.293-1.363,5.217-0.992,7.731-1.885C328.557,364.594,330.564,359.128,331.986,354.31z"/>
						</g>
						<g>
							<g>
								<path style="fill:#3A3029;" d="M367.776,308.948c1.297-6.647,2.594-13.294,3.89-19.941c0.482-2.469,0.962-5.032,0.36-7.474
									c-1.001-4.061-13.568-10.779-17.497-12.212c-3.93-1.434-8.162-1.838-12.155-3.083c-4.262-1.329-8.32-3.626-12.78-3.811
									c-8.483-0.352-15.624,6.931-24.091,7.55c-11.724,0.857-21.89-5.353-30.04,7.66c-1.497,2.391-2.1,5.239-3.452,7.715
									c-1.746,3.198-4.631,5.592-6.966,8.39c-10.267,12.302-9.013,32.416,1.121,44.457c4.913,5.838,6.694,10.89,13.95,13.25
									c-2.8-7.183,4.032-34.255,13.579-36.541c2.529-0.604,9.656,3.037,12.345,3.669c5.958,1.399,11.739,2.869,17.213,5.706
									c8.124,4.21,17.057,7.467,26.115,8.929c1.159,0.187,2.234-0.428,3.405-0.352c6.807,0.442,7.892,2.014,10.147,0.985
									C370.617,330.332,366.157,317.247,367.776,308.948z"/>
							</g>
						</g>
					</g>
				</g>
			</g>
		</g>
		<polygon style="fill:#AEC4C4;" points="334.701,376.637 358,386 402,495 483,559 466,577 384,531 		"/>
		<g>
			<rect x="181" y="575" style="fill:#FFFFFF;" width="453" height="225"/>
			<g>
				<g>
					<g>
						<g>
							<polygon style="fill:#FCE0A7;" points="620.993,575.523 195,575 407.667,707.738 							"/>
							<path style="fill:#FCE0A7;" d="M181.011,583.089l-0.73,274.301l399.289,1.063c30.201,0.08,54.753-26.021,54.839-58.301
								l0.574-215.855L407.62,725.212L181.011,583.089z"/>
						</g>
					</g>
				</g>
				<g style="opacity:0.1;">
					<path d="M510.044,575.228c0.116,14.658,3.452,29.428,10.151,42.469c2.632,5.122,5.507,10.111,8.574,14.985l92.224-57.159
						L510.044,575.228z"/>
				</g>
				<g style="opacity:0.1;">
					<path d="M537.08,644.975c10.56,14.564,22.797,28.02,35.718,40.587c16.611,16.155,58.478,49.756,61.777,52.195l0.409-153.461
						L537.08,644.975z"/>
				</g>
				<g>
					<path style="fill:#C33258;" d="M692.094,477.632c-21.936-2.049-49.61,10.558-56.297,30.907
						c-6.492-20.411-40.1-33.113-62.055-31.274c-57.936,4.854-77.875,75.004-53.547,122.358
						c13.094,25.487,31.979,47.807,52.603,67.866c17.271,16.797,61.854,52.461,61.991,52.341
						c0.136,0.121,45.057-35.116,62.487-51.747c20.815-19.861,39.912-42,53.248-67.36
						C775.304,553.603,749.981,483.04,692.094,477.632z"/>
				</g>
				<g>
					<polygon style="fill:#FFFFFF;" points="649.202,619.703 632.034,619.389 633.066,562.876 622.336,562.68 622.649,545.512 
						650.548,546.022 					"/>
				</g>
			</g>
		</g>
		<polygon style="fill:#AEC4C4;" points="270,375 238,390 135,508 206,615 228,604 189,508 270,433 		"/>
		<polygon style="fill:#EACDB0;" points="225.2,605.4 246,615 246,639 236,641 209.33,613.335 		"/>
		<polygon style="fill:#EACDB0;" points="461.346,574.389 474,561 493,568 500,590 483,590 469.778,573 		"/>
		<polygon style="fill:#D1AA95;" points="1153.746,359.304 1093.973,331.051 1125,211 1100.427,205.055 1045,323 1050,353 1133,411 
			1174,360 		"/>
		<polygon style="fill:#605A52;" points="1086.515,625.559 1089.517,757.968 1115.271,959.483 1144.422,958.927 1148.701,795.286 
			1192.671,605.852 		"/>
		<polygon style="fill:#605A52;" points="1135.549,600.421 1175.537,781.382 1230.131,968.209 1257.084,963.186 1241.606,774.866 
			1245.804,598.372 		"/>
		<polygon style="fill:#3A3029;" points="1118.817,959.057 1099.733,968.977 1101.772,980.199 1143,977.189 1142.868,959 		"/>
		<polygon style="fill:#3A3029;" points="1230.719,963.05 1211.084,978.667 1216.668,991.304 1257.535,980.083 1254.337,963.84 		
			"/>
		<g>
			<path style="fill:#D1AA95;" d="M1254.543,695.347c-0.89,11.808,2.751,44.328-12.274,48.76
				c-18.196,5.368-27.15-10.398-37.801-21.311c-8.317-8.522-19.166-14.026-29.803-19.378c-29.18-14.681-52.966-19.915-85.334-19.167
				c-14.519,0.335-69.357,4.039-67.777-19.548c1.217-18.158,18.194-37.769,25.817-53.79c9.4-19.757,18.452-40.537,25.706-61.838
				c10.66-28.88,22.383-56.888,32.787-85.89c7.211-20.102,13.988-40.613,23.003-59.472c7.059-14.766,19.191-36.171,31.962-41.789
				c4.322-1.901,8.88-1.692,13.327-1.462c13.491,0.696,26.982,1.392,40.472,2.089c4.918,0.254,10.028,0.577,14.241,3.771
				c6.313,4.786,9.21,14.832,11.691,24.183c11.124,41.933,16.581,86.545,17.754,132.145c0.612,23.809,1.012,47.646,0.838,71.519
				c-0.195,26.641-1.097,53.338-3.208,79.967C1255.711,677.094,1255.293,685.404,1254.543,695.347z"/>
		</g>
		<path style="fill:#FFFFE3;" d="M1219.018,362.869c0,0-5.031,36.193-29.129,42.202c-24.097,6.009-36.293-18.021-15.765-44.707
			L1219.018,362.869z"/>
		<g>
			<g>
				<path style="fill:#5E533B;" d="M1217.347,289.406c-9.943,0.587-22.947,7.438-26.54,17.414c-1.73,4.804-0.675,9.55-2.731,14.619
					c-4.016,10.008,6.644,26.768-6.619,32.449c-6.817,2.92-14.629,0.755-21.714-1.437c-0.859-0.266-1.756-0.554-2.383-1.199
					c-1.032-1.062-1.014-2.81-0.409-4.161s1.679-2.424,2.642-3.549c10.071-11.764,10.243-30.375,15.327-44.55
					c5.074-14.147,15.666-27.441,30.806-31.658c6.619,5.53,9.972,11.123,10.744,19.714L1217.347,289.406z"/>
			</g>
			<g>
				<path style="fill:#EACDB0;" d="M1188.658,293.272c20.076-25.126,48.781,1.893,45.366,31.291
					c-1.948,16.775-17.393,31.607-32.584,33.438c-0.41,2.846-1.745,5.796-1.958,8.788c-4.688-0.267-9.13-1.344-13.344-2.725
					c-2.489-0.816-3.598-3.72-2.316-6.005c0.769-1.371,1.517-2.71,1.986-3.629c-2.226-1.503-4.305-3.483-6.171-5.999
					c-5.83-7.857-6.99-19.24-4.681-29.128C1177.265,309.417,1182.625,300.822,1188.658,293.272z"/>
			</g>
			<g>
				<path style="fill:#5E533B;" d="M1217.461,345.284c2.473-5.387,5.358-10.388,7.118-16.095c1.986-6.438,3.173-13.157,3.252-19.902
					c0.13-11.059-4.176-22.298-16.837-22.553c-0.601-0.012-1.202-0.008-1.802,0.008c-5.028,0.134-6.436-6.95-6.433-10.854
					c0.003-4.639,2.768-8.953,6.43-11.804c31.583-24.587,64.594,21.41,67.868,49.507c0.233,1.995,0.349,3.999,0.458,6.004
					c1.25,24.312-3.766,48.963-11.328,71.948c-4.748,14.432-16.402,26.883-16.49,42.075c-0.08,13.81,9.416,25.517,17.414,36.775
					c7.998,11.259,15.161,25.566,9.989,38.372c-3.193,7.908-10.752,13.519-18.957,15.843c-8.205,2.325-16.994,1.7-25.323-0.132
					c-6.667-1.466-13.263-3.701-20.089-3.695c-6.826,0.006-14.204,2.84-17.262,8.943c-1.688,3.368-2.369,7.912-5.89,9.25
					c-1.652,0.628-3.495,0.308-5.232-0.019c-5.309-1.001-11.272-2.446-13.961-7.133c-4.162-7.254,1.693-18.704-4.965-23.764
					c-1.951-1.483-4.492-1.874-6.765-2.789c-11.657-4.69-12.788-21.812-6.124-32.464c6.665-10.652,18.137-17.133,27.566-25.438
					c18.409-16.215,33.638-39.925,29.901-64.688c-1.886-12.494,2.06-25.353,7.124-36.649
					C1217.234,345.78,1217.347,345.531,1217.461,345.284z"/>
			</g>
		</g>
		<path style="fill:#EACDB0;" d="M1105.479,206.277l-11.804-12.299L1100,162l18,3v22l6,7l-3,16
			C1121,210,1105.958,206.554,1105.479,206.277z"/>
		<polygon style="fill:#EACDB0;" points="1329.716,642.445 1342,666 1325,685 1315,678 1312.614,649.97 		"/>
	</g>
</g>
</svg>
