<svg id="Ebene_1" data-name="Ebene 1" xmlns="http://www.w3.org/2000/svg" xmlns:xlink="http://www.w3.org/1999/xlink" viewBox="0 0 1993.28 1117.36"><defs><style>.cls-1{fill:#ffcc01;}.cls-2{fill:#ffd715;}.cls-3{fill:#ffdb53;}.cls-4{fill:url(#Unbenannter_Verlauf_3);}.cls-5{fill:url(#Unbenannter_Verlauf_3-2);}.cls-6{fill:url(#Unbenannter_Verlauf_3-3);}.cls-7{fill:url(#Unbenannter_Verlauf_3-4);}.cls-8{fill:url(#Unbenannter_Verlauf_3-5);}.cls-9{fill:url(#Unbenannter_Verlauf_3-6);}.cls-10{fill:url(#Unbenannter_Verlauf_3-7);}.cls-11{fill:url(#Unbenannter_Verlauf_3-8);}.cls-12{fill:url(#Unbenannter_Verlauf_3-9);}.cls-13{fill:url(#Unbenannter_Verlauf_3-10);}.cls-14{fill:url(#Unbenannter_Verlauf_3-11);}.cls-15{fill:url(#Unbenannter_Verlauf_3-12);}.cls-16{fill:url(#Unbenannter_Verlauf_3-13);}.cls-17{fill:url(#Unbenannter_Verlauf_3-14);}.cls-18{fill:url(#Unbenannter_Verlauf_3-15);}</style><linearGradient id="Unbenannter_Verlauf_3" x1="2138.14" y1="2238.17" x2="1919.29" y2="2361.98" gradientTransform="matrix(1, 0, 0, -1, -59.88, 4845.14)" gradientUnits="userSpaceOnUse"><stop offset="0" stop-color="#e69a24"/><stop offset="1" stop-color="#e2aa00"/></linearGradient><linearGradient id="Unbenannter_Verlauf_3-2" x1="2189.31" y1="2252.61" x2="1936.61" y2="2395.61" xlink:href="#Unbenannter_Verlauf_3"/><linearGradient id="Unbenannter_Verlauf_3-3" x1="2165.52" y1="2262.51" x2="1938.65" y2="2390.88" xlink:href="#Unbenannter_Verlauf_3"/><linearGradient id="Unbenannter_Verlauf_3-4" x1="2216.81" y1="2405.91" x2="1997.96" y2="2529.72" xlink:href="#Unbenannter_Verlauf_3"/><linearGradient id="Unbenannter_Verlauf_3-5" x1="2267.97" y1="2420.35" x2="2015.28" y2="2563.35" xlink:href="#Unbenannter_Verlauf_3"/><linearGradient id="Unbenannter_Verlauf_3-6" x1="2244.19" y1="2430.25" x2="2017.31" y2="2558.62" xlink:href="#Unbenannter_Verlauf_3"/><linearGradient id="Unbenannter_Verlauf_3-7" x1="2169.07" y1="2613.83" x2="1950.22" y2="2737.65" xlink:href="#Unbenannter_Verlauf_3"/><linearGradient id="Unbenannter_Verlauf_3-8" x1="2220.24" y1="2628.28" x2="1967.54" y2="2771.28" xlink:href="#Unbenannter_Verlauf_3"/><linearGradient id="Unbenannter_Verlauf_3-9" x1="2196.45" y1="2638.18" x2="1969.58" y2="2766.55" xlink:href="#Unbenannter_Verlauf_3"/><linearGradient id="Unbenannter_Verlauf_3-10" x1="3023.02" y1="2149.81" x2="2804.17" y2="2273.63" xlink:href="#Unbenannter_Verlauf_3"/><linearGradient id="Unbenannter_Verlauf_3-11" x1="3074.19" y1="2164.26" x2="2821.49" y2="2307.26" xlink:href="#Unbenannter_Verlauf_3"/><linearGradient id="Unbenannter_Verlauf_3-12" x1="3050.4" y1="2174.16" x2="2823.52" y2="2302.53" xlink:href="#Unbenannter_Verlauf_3"/><linearGradient id="Unbenannter_Verlauf_3-13" x1="3101.69" y1="2317.55" x2="2882.83" y2="2441.37" xlink:href="#Unbenannter_Verlauf_3"/><linearGradient id="Unbenannter_Verlauf_3-14" x1="3152.85" y1="2332" x2="2900.16" y2="2475" xlink:href="#Unbenannter_Verlauf_3"/><linearGradient id="Unbenannter_Verlauf_3-15" x1="3129.06" y1="2341.89" x2="2902.19" y2="2470.26" xlink:href="#Unbenannter_Verlauf_3"/></defs><path class="cls-1" d="M2018.23,2811.9c-284.34,0-514.87-120.21-514.87-257.43v167.3c0,137.27,230.53,248.56,514.87,248.56S2533.1,2859,2533.1,2721.77v-167.3c0,137.27-230.53,257.43-514.87,257.43" transform="translate(-1503.36 -1941.32)"/><path class="cls-2" d="M2533.1,2554.61c0,137.27-230.53,257.43-514.87,257.43s-514.87-120.21-514.87-257.43S1733.89,2317,2018.23,2317s514.87,100.35,514.87,237.62" transform="translate(-1503.36 -1941.32)"/><path class="cls-1" d="M2018.23,2732.17c-270.94,0-435.67-105.16-435.67-177.56s164.73-178.21,435.67-178.21,435.64,105.83,435.64,178.21-164.71,177.56-435.64,177.56" transform="translate(-1503.36 -1941.32)"/><path class="cls-3" d="M2049.92,2717.28c-7.05.17-14.24.24-21.45.24-251.61,0-404.55-97.65-404.55-164.85s153-165.52,404.55-165.52c7.21,0,14.4,0,21.45.25-238.8,5.39-383.1,100-383.1,165.27S1811.12,2711.92,2049.92,2717.28Z" transform="translate(-1503.36 -1941.32)"/><path class="cls-4" d="M2012.4,2500.75l-43.5,28.11-.49.32-.37.23h0l-.9.6-1.2.83-1.18.86c-1.34,1-2.64,2-3.86,3l-1.46,1.25-.69.63-1.37,1.25-.67.64c-.46.44-.9.9-1.34,1.34l-.58.6-.6.65-.6.67q-2,2.22-3.77,4.63l-.48.67a44.88,44.88,0,0,0-2.64,4l-.32.58a43.84,43.84,0,0,0-2.91,6.35c0,.21-.17.42-.23.6s-.19.49-.26.74l-.14.4-.21.62-.13.49c-.14.46-.28.92-.4,1.38s-.16.65-.23,1a3.12,3.12,0,0,0-.11.53,30.57,30.57,0,0,0-.58,3c0,.2,0,.41,0,.62,0,.42-.12.83-.16,1.25a1.7,1.7,0,0,0,0,.53v.67a2.35,2.35,0,0,0,0,.53v.72c-.54,14.56,6.93,29.22,22.23,41l-71.66-47.66c-31.62-21.09-29.77-56,5.57-75.43,30.84-17,76.77-13.88,105,4.92Z" transform="translate(-1503.36 -1941.32)"/><path class="cls-5" d="M2139.69,2574.72l-113.93,73.42-2.49-1.66c-17.92-13.87-25-31.44-21.29-48.3,2.82-12.76,11.83-25,27-34.86l49.34-31.81c13.54-11.21,23.11-22.4,28-32.89,3.4-7.35,6.93-18-.28-28.71-3.35-5-7.93-8.19-7.26-8.56s9.06,4.12,44.39,28.39h0C2177,2514.06,2175.86,2551.37,2139.69,2574.72Z" transform="translate(-1503.36 -1941.32)"/><path class="cls-6" d="M2068.79,2529.71l-49.34,31.79c-15.21,9.8-24.22,22.12-27,34.86-5.16,23.3,19.85,41.93,15.88,43.71-1.78.81-8.46-2.1-29-17.27l-13.71-9.24-2.49-1.64c-15.38-11.84-22.77-26.5-22.24-41.06v-.72a4.68,4.68,0,0,1,0-.53v-1.2l.34-1.18v-.62c.14-1,.35-2,.58-3a4.54,4.54,0,0,1,.12-.53,3.7,3.7,0,0,1,.23-1c.09-.33.25-.93.39-1.39l.14-.49.21-.62.14-.39a2.31,2.31,0,0,1,.25-.74,6.39,6.39,0,0,1,.23-.6,44.79,44.79,0,0,1,2.89-6.25l.33-.57a42.87,42.87,0,0,1,2.47-3.91l.49-.67a57.56,57.56,0,0,1,3.76-4.63l.6-.67.61-.64.57-.6c.44-.44.88-.91,1.34-1.34l.68-.65,1.36-1.25.69-.62,1.46-1.25c1.22-1,2.52-2,3.86-3l1.18-.85,1.2-.84.9-.6h0l.37-.23.37-.25,114.06-73.52a69.56,69.56,0,0,1,13.73,12.7C2107,2484.93,2095.88,2507.26,2068.79,2529.71Z" transform="translate(-1503.36 -1941.32)"/><path class="cls-1" d="M2096.89,2644.17c-284.34,0-514.86-120.21-514.86-257.44V2554c0,137.27,230.52,248.56,514.86,248.56S2611.76,2691.3,2611.76,2554v-167.3c0,137.27-230.52,257.44-514.87,257.44" transform="translate(-1503.36 -1941.32)"/><path class="cls-2" d="M2611.76,2386.87c0,137.27-230.52,257.43-514.87,257.43S1582,2524.09,1582,2386.87s230.52-237.62,514.86-237.62,514.87,100.35,514.87,237.62" transform="translate(-1503.36 -1941.32)"/><path class="cls-1" d="M2096.89,2564.43c-270.93,0-435.66-105.16-435.66-177.56s164.73-178.21,435.66-178.21,435.65,105.83,435.65,178.21-164.71,177.56-435.65,177.56" transform="translate(-1503.36 -1941.32)"/><path class="cls-3" d="M2128.59,2549.55c-7.05.16-14.24.23-21.45.23-251.61,0-404.56-97.65-404.56-164.85s153-165.52,404.56-165.52c7.21,0,14.4,0,21.45.25-238.8,5.39-383.1,100-383.1,165.27S1889.79,2544.18,2128.59,2549.55Z" transform="translate(-1503.36 -1941.32)"/><path class="cls-7" d="M2091.07,2333l-43.51,28.11-.48.32-.37.23h0l-.9.6-1.21.84-1.18.85c-1.34,1-2.63,2-3.86,3l-1.45,1.24-.7.63-1.36,1.25-.67.64c-.46.44-.9.91-1.34,1.35l-.58.6-.6.64-.6.67a57.68,57.68,0,0,0-3.77,4.63l-.49.67a42.71,42.71,0,0,0-2.63,4l-.32.58a44.59,44.59,0,0,0-2.92,6.36,2,2,0,0,1-.23.6c-.07.18-.18.48-.25.74l-.14.39-.21.62-.14.49c-.14.46-.28.92-.39,1.39s-.16.64-.23,1a4.54,4.54,0,0,0-.12.53c-.23,1-.44,2-.58,3,0,.2,0,.41,0,.62a10.68,10.68,0,0,1-.16,1.25,2.08,2.08,0,0,0,0,.53v.67a4.68,4.68,0,0,0,0,.53v.72c-.53,14.56,6.94,29.22,22.24,41.06l-71.66-47.67c-31.63-21.08-29.78-56,5.57-75.43,30.84-16.95,76.77-13.87,105,4.92Z" transform="translate(-1503.36 -1941.32)"/><path class="cls-8" d="M2218.35,2407l-113.92,73.42-2.5-1.66c-17.91-13.87-25-31.44-21.29-48.29,2.82-12.76,11.84-25.06,27.05-34.86l49.33-31.81c13.55-11.22,23.12-22.4,28-32.9,3.4-7.35,6.94-18-.27-28.71-3.36-5-7.93-8.19-7.26-8.55s9.06,4.11,44.38,28.38h0C2255.62,2346.32,2254.53,2383.63,2218.35,2407Z" transform="translate(-1503.36 -1941.32)"/><path class="cls-9" d="M2147.45,2362l-49.33,31.79c-15.21,9.8-24.23,22.12-27,34.86-5.15,23.3,19.86,41.93,15.88,43.71-1.78.81-8.46-2.1-29-17.26l-13.71-9.25-2.5-1.64c-15.37-11.84-22.77-26.49-22.24-41.06v-.72a4.68,4.68,0,0,1,0-.53v-1.2l.35-1.18v-.62c.14-1,.35-2,.58-3,0-.18.07-.36.11-.53a3.36,3.36,0,0,1,.24-1c.09-.33.25-.93.39-1.39l.14-.49.21-.62.13-.39a2.34,2.34,0,0,1,.26-.74,6.39,6.39,0,0,1,.23-.6,44.79,44.79,0,0,1,2.89-6.25l.32-.57a43,43,0,0,1,2.48-3.91l.48-.67a57.93,57.93,0,0,1,3.77-4.62l.6-.67.6-.65.58-.6c.44-.44.88-.9,1.34-1.34l.67-.65,1.37-1.25.69-.62,1.46-1.25c1.22-1,2.52-2,3.86-3l1.17-.85,1.21-.83.9-.61h0l.37-.23.37-.25,114.06-73.51a69.21,69.21,0,0,1,13.73,12.69C2185.71,2317.19,2174.55,2339.53,2147.45,2362Z" transform="translate(-1503.36 -1941.32)"/><path class="cls-1" d="M2049.16,2436.24c-284.34,0-514.87-120.21-514.87-257.44v167.3c0,137.27,230.53,248.56,514.87,248.56S2564,2483.37,2564,2346.1V2178.8c0,137.27-230.53,257.44-514.87,257.44" transform="translate(-1503.36 -1941.32)"/><path class="cls-2" d="M2564,2178.94c0,137.27-230.53,257.44-514.87,257.44s-514.87-120.21-514.87-257.44,230.53-237.62,514.87-237.62S2564,2041.67,2564,2178.94" transform="translate(-1503.36 -1941.32)"/><path class="cls-1" d="M2049.16,2356.51c-270.94,0-435.67-105.16-435.67-177.57s164.73-178.21,435.67-178.21,435.64,105.83,435.64,178.21-164.71,177.57-435.64,177.57" transform="translate(-1503.36 -1941.32)"/><path class="cls-3" d="M2080.85,2341.62c-7,.16-14.24.23-21.45.23-251.61,0-404.55-97.65-404.55-164.85s153-165.52,404.55-165.52c7.21,0,14.4,0,21.45.25-238.8,5.39-383.1,100-383.1,165.27S1842.05,2336.25,2080.85,2341.62Z" transform="translate(-1503.36 -1941.32)"/><path class="cls-10" d="M2043.33,2125.08l-43.5,28.11-.49.32-.37.23h0l-.9.61-1.2.83-1.18.85c-1.34,1-2.64,2-3.86,3l-1.46,1.25-.69.62-1.37,1.25-.67.65c-.46.44-.9.9-1.34,1.34l-.58.6-.6.65-.6.67a57.93,57.93,0,0,0-3.77,4.62l-.48.67a44.88,44.88,0,0,0-2.64,4l-.32.58a43.47,43.47,0,0,0-2.91,6.36c0,.21-.17.41-.23.6a7.7,7.7,0,0,0-.26.74l-.14.39-.21.63-.13.48c-.14.46-.28.93-.4,1.39s-.16.64-.23,1a3.12,3.12,0,0,0-.11.53,30.57,30.57,0,0,0-.58,3c0,.21,0,.41,0,.62,0,.42-.12.83-.16,1.25a1.67,1.67,0,0,0,0,.53v.67a2.35,2.35,0,0,0,0,.53v.72c-.54,14.57,6.93,29.22,22.24,41.06l-71.67-47.67c-31.62-21.08-29.77-56,5.57-75.43,30.84-17,76.78-13.87,105,4.92Z" transform="translate(-1503.36 -1941.32)"/><path class="cls-11" d="M2170.62,2199.05l-113.93,73.42-2.49-1.66c-17.92-13.87-25-31.44-21.29-48.29,2.82-12.76,11.83-25.06,27-34.86l49.34-31.81c13.54-11.21,23.11-22.4,28-32.9,3.4-7.35,6.93-18-.28-28.71-3.35-5-7.93-8.18-7.26-8.55s9.06,4.11,44.39,28.38h0C2207.88,2138.39,2206.79,2175.71,2170.62,2199.05Z" transform="translate(-1503.36 -1941.32)"/><path class="cls-12" d="M2099.72,2154l-49.34,31.79c-15.21,9.8-24.22,22.12-27,34.86-5.16,23.3,19.85,41.94,15.88,43.72-1.78.81-8.46-2.11-29-17.27l-13.71-9.25-2.49-1.64c-15.38-11.84-22.77-26.49-22.24-41.06v-.71a4.86,4.86,0,0,1,0-.54v-1.2l.34-1.18v-.62c.14-1,.35-2,.58-3a4.54,4.54,0,0,1,.12-.53,3.8,3.8,0,0,1,.23-1c.09-.32.25-.93.39-1.39l.14-.48.21-.63.14-.39a2.31,2.31,0,0,1,.25-.74c.09-.25.14-.39.23-.6a44.67,44.67,0,0,1,2.89-6.24l.33-.58a42.87,42.87,0,0,1,2.47-3.91l.49-.67a57.41,57.41,0,0,1,3.76-4.62l.61-.67.6-.65.57-.6c.44-.44.88-.9,1.34-1.34l.68-.65,1.36-1.25.69-.62,1.46-1.25c1.22-1,2.52-2,3.86-3l1.18-.86,1.2-.83.9-.6h0l.37-.23.37-.26,114.06-73.51a69.21,69.21,0,0,1,13.73,12.69C2138,2109.27,2126.81,2131.6,2099.72,2154Z" transform="translate(-1503.36 -1941.32)"/><path class="cls-1" d="M2903.11,2900.26c-284.35,0-514.87-120.21-514.87-257.44v167.3c0,137.27,230.52,248.56,514.87,248.56S3418,2947.39,3418,2810.12v-167.3c0,137.27-230.52,257.44-514.86,257.44" transform="translate(-1503.36 -1941.32)"/><path class="cls-2" d="M3418,2643c0,137.27-230.52,257.44-514.86,257.44S2388.24,2780.19,2388.24,2643s230.52-237.62,514.87-237.62S3418,2505.69,3418,2643" transform="translate(-1503.36 -1941.32)"/><path class="cls-1" d="M2903.11,2820.53c-270.94,0-435.67-105.16-435.67-177.57s164.73-178.21,435.67-178.21,435.64,105.83,435.64,178.21S3174,2820.53,2903.11,2820.53" transform="translate(-1503.36 -1941.32)"/><path class="cls-3" d="M2934.8,2805.64c-7.05.16-14.24.23-21.45.23-251.61,0-404.56-97.65-404.56-164.85s153-165.52,404.56-165.52c7.21,0,14.4,0,21.45.26-238.8,5.38-383.1,100-383.1,165.26S2696,2800.28,2934.8,2805.64Z" transform="translate(-1503.36 -1941.32)"/><path class="cls-13" d="M2897.28,2589.1l-43.51,28.11-.48.32-.37.23h0l-.9.61-1.21.83-1.17.85c-1.35,1-2.64,2-3.87,3l-1.45,1.25-.69.62-1.37,1.25-.67.65c-.46.44-.9.9-1.34,1.34l-.58.6-.6.65-.6.67c-1.33,1.47-2.59,3-3.77,4.62l-.48.67a44.88,44.88,0,0,0-2.64,4l-.32.58a45.1,45.1,0,0,0-2.92,6.36,1.91,1.91,0,0,1-.23.6c-.07.18-.18.48-.25.74l-.14.39-.21.63-.14.48c-.14.46-.27.93-.39,1.39s-.16.65-.23,1a4.54,4.54,0,0,0-.12.53,30.54,30.54,0,0,0-.57,3,3.21,3.21,0,0,0,0,.62,10.43,10.43,0,0,1-.17,1.25,2.08,2.08,0,0,0,0,.53v.67a4.86,4.86,0,0,0,0,.54v.71c-.53,14.57,6.94,29.22,22.24,41.06l-71.66-47.67c-31.62-21.08-29.78-56,5.57-75.43,30.84-17,76.77-13.87,105,4.92Z" transform="translate(-1503.36 -1941.32)"/><path class="cls-14" d="M3024.56,2663.07l-113.92,73.43-2.49-1.67c-17.92-13.87-25-31.44-21.3-48.29,2.82-12.76,11.84-25.06,27.05-34.86l49.33-31.81c13.55-11.21,23.12-22.4,28-32.9,3.39-7.35,6.93-18-.28-28.71-3.35-5-7.93-8.18-7.26-8.55s9.06,4.11,44.38,28.39h0C3061.83,2602.41,3060.74,2639.73,3024.56,2663.07Z" transform="translate(-1503.36 -1941.32)"/><path class="cls-15" d="M2953.66,2618.07l-49.33,31.78c-15.21,9.8-24.23,22.12-27,34.86-5.15,23.3,19.86,41.94,15.89,43.72-1.78.81-8.47-2.11-29-17.27l-13.71-9.25-2.5-1.64c-15.37-11.84-22.77-26.49-22.23-41.06v-.71a2.35,2.35,0,0,1,0-.53v-1.21l.34-1.18V2655c.14-1,.35-2,.58-3a5,5,0,0,1,.12-.53,3.8,3.8,0,0,1,.23-1c.09-.32.25-.93.39-1.39l.14-.48.21-.63.14-.39a2.4,2.4,0,0,1,.25-.74c.09-.25.14-.39.23-.6a44.67,44.67,0,0,1,2.89-6.24l.32-.58a45.26,45.26,0,0,1,2.48-3.91l.48-.67c1.18-1.6,2.44-3.15,3.77-4.62l.6-.67.6-.65.58-.6c.44-.44.88-.9,1.34-1.34l.67-.65,1.37-1.25.69-.62,1.46-1.25c1.22-1,2.52-2,3.86-3l1.18-.86,1.2-.83.9-.6h0l.37-.23.37-.26,114.06-73.51a69.21,69.21,0,0,1,13.73,12.69C2991.92,2573.29,2980.76,2595.62,2953.66,2618.07Z" transform="translate(-1503.36 -1941.32)"/><path class="cls-1" d="M2981.77,2732.52c-284.34,0-514.87-120.21-514.87-257.43v167.3c0,137.27,230.53,248.55,514.87,248.55s514.87-111.28,514.87-248.55v-167.3c0,137.27-230.53,257.43-514.87,257.43" transform="translate(-1503.36 -1941.32)"/><path class="cls-2" d="M3496.64,2475.22c0,137.27-230.53,257.44-514.87,257.44s-514.87-120.21-514.87-257.44,230.53-237.62,514.87-237.62,514.87,100.35,514.87,237.62" transform="translate(-1503.36 -1941.32)"/><path class="cls-1" d="M2981.77,2652.79c-270.93,0-435.67-105.16-435.67-177.57S2710.84,2297,2981.77,2297s435.65,105.83,435.65,178.21-164.71,177.57-435.65,177.57" transform="translate(-1503.36 -1941.32)"/><path class="cls-3" d="M3013.47,2637.9c-7,.16-14.24.23-21.46.23-251.61,0-404.55-97.65-404.55-164.85s153-165.52,404.55-165.52c7.22,0,14.41,0,21.46.26-238.81,5.38-383.1,100-383.1,165.26S2774.66,2632.54,3013.47,2637.9Z" transform="translate(-1503.36 -1941.32)"/><path class="cls-16" d="M2976,2421.36l-43.51,28.11-.49.33-.37.23h0l-.9.6-1.2.83-1.18.85c-1.34,1-2.63,2-3.86,3l-1.45,1.25-.7.62-1.36,1.25-.67.65c-.47.44-.9.9-1.34,1.34l-.58.6-.6.65-.6.67a55.45,55.45,0,0,0-3.77,4.62l-.49.67a44,44,0,0,0-2.63,4l-.33.58a45.05,45.05,0,0,0-2.91,6.36,1.82,1.82,0,0,1-.23.6c-.07.19-.18.49-.25.74l-.14.39-.21.63-.14.48c-.14.47-.28.93-.39,1.39s-.16.65-.23,1a5,5,0,0,0-.12.53c-.23,1-.44,2-.58,3,0,.21,0,.42,0,.62a10.42,10.42,0,0,1-.16,1.25,1.76,1.76,0,0,0,0,.54v.67a4.68,4.68,0,0,0,0,.53v.71c-.53,14.57,6.94,29.22,22.24,41.06l-71.66-47.67c-31.63-21.08-29.78-56,5.57-75.43,30.84-16.94,76.77-13.87,105,4.92Z" transform="translate(-1503.36 -1941.32)"/><path class="cls-17" d="M3103.23,2495.34l-113.92,73.42-2.5-1.67c-17.91-13.87-25-31.44-21.29-48.29,2.82-12.76,11.84-25.06,27.05-34.86l49.33-31.81c13.55-11.21,23.12-22.4,28-32.9,3.4-7.35,6.94-18-.28-28.71-3.35-5-7.92-8.18-7.25-8.55s9.06,4.11,44.38,28.39h0C3140.5,2434.68,3139.41,2472,3103.23,2495.34Z" transform="translate(-1503.36 -1941.32)"/><path class="cls-18" d="M3032.33,2450.33,2983,2482.11c-15.21,9.8-24.23,22.13-27.05,34.86-5.15,23.31,19.86,41.94,15.88,43.72-1.78.81-8.46-2.11-29-17.27l-13.71-9.25-2.5-1.64c-15.37-11.83-22.77-26.49-22.24-41.05v-.72a4.68,4.68,0,0,1,0-.53V2489l.35-1.18v-.63c.14-1,.35-2,.58-3a3.33,3.33,0,0,1,.11-.53,3.8,3.8,0,0,1,.23-1c.1-.32.26-.92.4-1.39l.14-.48.2-.63.14-.39a2.27,2.27,0,0,1,.26-.74c.09-.25.14-.39.23-.6a43.55,43.55,0,0,1,2.89-6.24l.32-.58c.76-1.34,1.58-2.65,2.47-3.91l.49-.67a59.35,59.35,0,0,1,3.77-4.62l.6-.67.6-.65.58-.6c.44-.44.88-.9,1.34-1.34l.67-.65,1.36-1.24.7-.63,1.45-1.25c1.23-1,2.52-2,3.86-3l1.18-.86,1.21-.83.9-.6h0l.37-.23.37-.26,114.06-73.51a69.77,69.77,0,0,1,13.73,12.69C3070.59,2405.55,3059.42,2427.88,3032.33,2450.33Z" transform="translate(-1503.36 -1941.32)"/></svg>