<svg id="Ebene_1" data-name="Ebene 1" xmlns="http://www.w3.org/2000/svg" xmlns:xlink="http://www.w3.org/1999/xlink" viewBox="0 0 1108.4 821.08"><defs><style>.cls-1{fill:#ffcc01;}.cls-2{fill:#ffd715;}.cls-3{fill:#ffdb53;}.cls-4{fill:url(#Unbenannter_Verlauf_3);}.cls-5{fill:url(#Unbenannter_Verlauf_3-2);}.cls-6{fill:url(#Unbenannter_Verlauf_3-3);}.cls-7{fill:url(#Unbenannter_Verlauf_3-4);}.cls-8{fill:url(#Unbenannter_Verlauf_3-5);}.cls-9{fill:url(#Unbenannter_Verlauf_3-6);}</style><linearGradient id="Unbenannter_Verlauf_3" x1="2580.58" y1="2297.95" x2="2361.73" y2="2421.77" gradientTransform="matrix(1, 0, 0, -1, -59.88, 4845.14)" gradientUnits="userSpaceOnUse"><stop offset="0" stop-color="#e69a24"/><stop offset="1" stop-color="#e2aa00"/></linearGradient><linearGradient id="Unbenannter_Verlauf_3-2" x1="2631.75" y1="2312.4" x2="2379.05" y2="2455.4" xlink:href="#Unbenannter_Verlauf_3"/><linearGradient id="Unbenannter_Verlauf_3-3" x1="2607.96" y1="2322.3" x2="2381.08" y2="2450.67" xlink:href="#Unbenannter_Verlauf_3"/><linearGradient id="Unbenannter_Verlauf_3-4" x1="2659.25" y1="2465.69" x2="2440.4" y2="2589.51" xlink:href="#Unbenannter_Verlauf_3"/><linearGradient id="Unbenannter_Verlauf_3-5" x1="2710.41" y1="2480.14" x2="2457.72" y2="2623.14" xlink:href="#Unbenannter_Verlauf_3"/><linearGradient id="Unbenannter_Verlauf_3-6" x1="2686.62" y1="2490.03" x2="2459.75" y2="2618.4" xlink:href="#Unbenannter_Verlauf_3"/></defs><path class="cls-1" d="M2460.67,2752.12c-284.35,0-514.87-120.21-514.87-257.44V2662c0,137.27,230.52,248.56,514.87,248.56s514.86-111.29,514.86-248.56v-167.3c0,137.27-230.52,257.44-514.86,257.44" transform="translate(-1945.8 -2089.46)"/><path class="cls-2" d="M2975.53,2494.82c0,137.27-230.52,257.44-514.86,257.44s-514.87-120.21-514.87-257.44,230.52-237.62,514.87-237.62,514.86,100.35,514.86,237.62" transform="translate(-1945.8 -2089.46)"/><path class="cls-1" d="M2460.67,2672.39c-270.94,0-435.67-105.17-435.67-177.57s164.73-178.21,435.67-178.21,435.64,105.83,435.64,178.21-164.71,177.57-435.64,177.57" transform="translate(-1945.8 -2089.46)"/><path class="cls-3" d="M2492.36,2657.5c-7.05.16-14.24.23-21.45.23-251.61,0-404.55-97.65-404.55-164.85s153-165.52,404.55-165.52c7.21,0,14.4,0,21.45.25-238.8,5.39-383.1,100-383.1,165.27S2253.56,2652.13,2492.36,2657.5Z" transform="translate(-1945.8 -2089.46)"/><path class="cls-4" d="M2454.84,2441l-43.51,28.11-.48.32-.37.23h0l-.9.6-1.2.84-1.18.85c-1.34,1-2.64,2-3.86,3l-1.46,1.25-.69.62-1.37,1.25-.67.65c-.46.43-.9.9-1.34,1.34l-.58.6-.6.64-.6.68a57.93,57.93,0,0,0-3.77,4.62l-.48.67a44.88,44.88,0,0,0-2.64,4l-.32.58a43.47,43.47,0,0,0-2.91,6.36c0,.2-.17.41-.24.6s-.18.48-.25.74l-.14.39-.21.62-.14.49c-.13.46-.27.92-.39,1.39s-.16.64-.23,1a4.54,4.54,0,0,0-.12.53c-.23,1-.43,2-.57,3,0,.21,0,.41,0,.62,0,.42-.12.83-.16,1.25a1.67,1.67,0,0,0,0,.53v.67a2.35,2.35,0,0,0,0,.53v.72c-.54,14.57,6.93,29.22,22.23,41.06L2334,2504.67c-31.62-21.08-29.77-56,5.57-75.43,30.84-16.95,76.77-13.87,105,4.92Z" transform="translate(-1945.8 -2089.46)"/><path class="cls-5" d="M2582.12,2514.93l-113.92,73.42-2.49-1.66c-17.92-13.87-25-31.44-21.29-48.29,2.82-12.76,11.83-25.06,27-34.86l49.33-31.81c13.55-11.21,23.12-22.4,28-32.9,3.39-7.35,6.93-18-.28-28.71-3.35-5-7.93-8.18-7.26-8.55s9.06,4.11,44.39,28.38h0C2619.39,2454.27,2618.3,2491.59,2582.12,2514.93Z" transform="translate(-1945.8 -2089.46)"/><path class="cls-6" d="M2511.22,2469.92l-49.33,31.79c-15.21,9.8-24.22,22.12-27,34.86-5.15,23.3,19.86,41.94,15.89,43.72-1.78.81-8.46-2.11-29-17.27l-13.71-9.25-2.49-1.64c-15.38-11.84-22.77-26.49-22.24-41.06v-.71a4.86,4.86,0,0,1,0-.54v-1.2l.34-1.18v-.62c.14-1,.35-2,.58-3a4.54,4.54,0,0,1,.12-.53,3.8,3.8,0,0,1,.23-1c.09-.33.25-.93.39-1.39l.14-.48.21-.63.14-.39a2.31,2.31,0,0,1,.25-.74c.09-.26.14-.39.23-.6a44.67,44.67,0,0,1,2.89-6.24l.33-.58a42.87,42.87,0,0,1,2.47-3.91l.48-.67c1.18-1.6,2.44-3.15,3.77-4.62l.6-.67.6-.65.58-.6c.44-.44.88-.9,1.34-1.34l.67-.65,1.37-1.25.69-.62,1.46-1.25c1.22-1,2.52-2,3.86-3l1.18-.85,1.2-.83.9-.6h0l.37-.24.37-.25,114.06-73.51a69.21,69.21,0,0,1,13.73,12.69C2549.48,2425.15,2538.32,2447.48,2511.22,2469.92Z" transform="translate(-1945.8 -2089.46)"/><path class="cls-1" d="M2539.33,2584.38c-284.34,0-514.86-120.21-514.86-257.44v167.3c0,137.27,230.52,248.56,514.86,248.56s514.87-111.29,514.87-248.56v-167.3c0,137.27-230.52,257.44-514.87,257.44" transform="translate(-1945.8 -2089.46)"/><path class="cls-2" d="M3054.2,2327.08c0,137.27-230.52,257.44-514.87,257.44s-514.86-120.21-514.86-257.44,230.52-237.62,514.86-237.62,514.87,100.35,514.87,237.62" transform="translate(-1945.8 -2089.46)"/><path class="cls-1" d="M2539.33,2504.65c-270.93,0-435.66-105.16-435.66-177.57s164.73-178.21,435.66-178.21S2975,2254.7,2975,2327.08s-164.71,177.57-435.65,177.57" transform="translate(-1945.8 -2089.46)"/><path class="cls-3" d="M2571,2489.76c-7.05.16-14.24.23-21.46.23C2298,2490,2145,2392.34,2145,2325.14s153-165.52,404.55-165.52c7.22,0,14.41,0,21.46.26-238.8,5.38-383.1,100-383.1,165.26S2332.23,2484.4,2571,2489.76Z" transform="translate(-1945.8 -2089.46)"/><path class="cls-7" d="M2533.51,2273.22,2490,2301.33l-.48.32-.37.24h0l-.91.6-1.2.83-1.18.85c-1.34,1-2.63,2-3.86,3l-1.45,1.25-.7.62-1.36,1.25-.67.65c-.46.44-.9.9-1.34,1.34l-.58.6-.6.65-.6.67a57.53,57.53,0,0,0-3.77,4.62l-.49.67a44,44,0,0,0-2.63,4l-.33.58a45.05,45.05,0,0,0-2.91,6.36,1.91,1.91,0,0,1-.23.6c-.07.18-.18.48-.25.74l-.14.39-.21.63-.14.48c-.14.46-.28.93-.39,1.39s-.16.65-.23,1a4.54,4.54,0,0,0-.12.53c-.23,1-.44,2-.58,3,0,.21,0,.42,0,.62a10.42,10.42,0,0,1-.16,1.25,2.08,2.08,0,0,0,0,.53v.67a4.86,4.86,0,0,0,0,.54v.71c-.53,14.57,6.94,29.22,22.24,41.06l-71.66-47.67c-31.63-21.08-29.78-56,5.57-75.43,30.84-16.95,76.77-13.87,105,4.92Z" transform="translate(-1945.8 -2089.46)"/><path class="cls-8" d="M2660.79,2347.2l-113.92,73.42-2.5-1.67c-17.91-13.87-25-31.44-21.29-48.29,2.82-12.76,11.84-25.06,27.05-34.86l49.33-31.81c13.55-11.21,23.12-22.4,28-32.9,3.4-7.35,6.94-18-.27-28.71-3.36-5-7.93-8.18-7.26-8.55s9.06,4.11,44.38,28.39h0C2698.06,2286.54,2697,2323.85,2660.79,2347.2Z" transform="translate(-1945.8 -2089.46)"/><path class="cls-9" d="M2589.89,2302.19,2540.56,2334c-15.21,9.8-24.23,22.13-27,34.86-5.15,23.3,19.86,41.94,15.88,43.72-1.78.81-8.46-2.11-29-17.27l-13.71-9.25-2.5-1.64c-15.37-11.84-22.77-26.49-22.24-41.06v-.71a4.68,4.68,0,0,1,0-.53v-1.21l.35-1.17v-.63c.14-1,.35-2,.58-3a5,5,0,0,1,.11-.53,3.8,3.8,0,0,1,.23-1c.1-.32.26-.92.4-1.39l.14-.48.2-.63.14-.39a2.43,2.43,0,0,1,.26-.74c.09-.25.14-.39.23-.6a44.67,44.67,0,0,1,2.89-6.24l.32-.58a44.4,44.4,0,0,1,2.48-3.91l.48-.67a57.53,57.53,0,0,1,3.77-4.62l.6-.67.6-.65.58-.6c.44-.44.88-.9,1.34-1.34l.67-.65,1.36-1.25.7-.62,1.45-1.25c1.23-1,2.52-2,3.87-3l1.17-.86,1.21-.83.9-.6h0l.37-.23.37-.26L2603.74,2228a69.49,69.49,0,0,1,13.73,12.69C2628.15,2257.41,2617,2279.74,2589.89,2302.19Z" transform="translate(-1945.8 -2089.46)"/></svg>