<svg id="Ebene_1" data-name="Ebene 1" xmlns="http://www.w3.org/2000/svg" xmlns:xlink="http://www.w3.org/1999/xlink" viewBox="0 0 1029.74 653.34"><defs><style>.cls-1{fill:#ffcc01;}.cls-2{fill:#ffd715;}.cls-3{fill:#ffdb53;}.cls-4{fill:url(#Unbenannter_Verlauf_3);}.cls-5{fill:url(#Unbenannter_Verlauf_3-2);}.cls-6{fill:url(#Unbenannter_Verlauf_3-3);}</style><linearGradient id="Unbenannter_Verlauf_3" x1="2619.91" y1="2381.82" x2="2401.06" y2="2505.64" gradientTransform="matrix(1, 0, 0, -1, -59.88, 4845.14)" gradientUnits="userSpaceOnUse"><stop offset="0" stop-color="#e69a24"/><stop offset="1" stop-color="#e2aa00"/></linearGradient><linearGradient id="Unbenannter_Verlauf_3-2" x1="2671.08" y1="2396.27" x2="2418.38" y2="2539.27" xlink:href="#Unbenannter_Verlauf_3"/><linearGradient id="Unbenannter_Verlauf_3-3" x1="2647.29" y1="2406.17" x2="2420.42" y2="2534.54" xlink:href="#Unbenannter_Verlauf_3"/></defs><path class="cls-1" d="M2500,2668.25c-284.34,0-514.87-120.21-514.87-257.44v167.3c0,137.27,230.53,248.56,514.87,248.56s514.87-111.29,514.87-248.56v-167.3c0,137.27-230.53,257.44-514.87,257.44" transform="translate(-1985.13 -2173.33)"/><path class="cls-2" d="M3014.87,2411c0,137.27-230.53,257.44-514.87,257.44S1985.13,2548.18,1985.13,2411s230.53-237.62,514.87-237.62,514.87,100.35,514.87,237.62" transform="translate(-1985.13 -2173.33)"/><path class="cls-1" d="M2500,2588.52c-270.93,0-435.67-105.16-435.67-177.57s164.74-178.21,435.67-178.21,435.64,105.83,435.64,178.21S2770.93,2588.52,2500,2588.52" transform="translate(-1985.13 -2173.33)"/><path class="cls-3" d="M2531.69,2573.63c-7.05.16-14.24.23-21.45.23-251.61,0-404.55-97.65-404.55-164.85s153-165.52,404.55-165.52c7.21,0,14.4,0,21.45.26-238.8,5.38-383.1,100-383.1,165.26S2292.89,2568.27,2531.69,2573.63Z" transform="translate(-1985.13 -2173.33)"/><path class="cls-4" d="M2494.17,2357.09l-43.5,28.11-.49.32-.37.23h0l-.9.61-1.2.83-1.18.85c-1.34,1-2.64,2-3.86,3l-1.46,1.25-.69.62-1.36,1.25-.68.65c-.46.44-.9.9-1.34,1.34l-.57.6-.6.65-.61.67a55.71,55.71,0,0,0-3.76,4.62l-.49.67a42.71,42.71,0,0,0-2.63,4l-.33.58a45.05,45.05,0,0,0-2.91,6.36,1.91,1.91,0,0,1-.23.6,7.7,7.7,0,0,0-.26.74l-.14.39-.2.63-.14.48c-.14.46-.28.93-.4,1.39s-.16.65-.23,1a4.52,4.52,0,0,0-.11.53c-.23,1-.44,2-.58,3,0,.21,0,.42,0,.62,0,.42-.12.84-.16,1.25a1.67,1.67,0,0,0,0,.53v.67a4.86,4.86,0,0,0,0,.54v.71c-.53,14.57,6.93,29.22,22.24,41.06l-71.67-47.67c-31.62-21.08-29.77-56,5.57-75.43,30.84-16.95,76.78-13.87,105,4.92Z" transform="translate(-1985.13 -2173.33)"/><path class="cls-5" d="M2621.46,2431.06l-113.92,73.42-2.5-1.66c-17.92-13.87-25-31.44-21.29-48.29,2.82-12.76,11.83-25.06,27.05-34.86l49.33-31.81c13.54-11.21,23.12-22.4,28-32.9,3.4-7.35,6.94-18-.28-28.71-3.35-5-7.93-8.18-7.26-8.55s9.07,4.11,44.39,28.39h0C2658.72,2370.4,2657.64,2407.72,2621.46,2431.06Z" transform="translate(-1985.13 -2173.33)"/><path class="cls-6" d="M2550.56,2386.05l-49.33,31.79c-15.22,9.8-24.23,22.12-27.05,34.86-5.16,23.3,19.86,41.94,15.88,43.72-1.78.81-8.46-2.11-29-17.27l-13.7-9.25-2.5-1.64c-15.37-11.84-22.77-26.49-22.24-41.06v-.71a4.68,4.68,0,0,1,0-.53v-1.21l.35-1.18V2423c.14-1,.34-2,.57-3a4.54,4.54,0,0,1,.12-.53,3.8,3.8,0,0,1,.23-1l.39-1.39.14-.48.21-.63.14-.39a2.4,2.4,0,0,1,.25-.74c.1-.25.14-.39.24-.6a43.55,43.55,0,0,1,2.89-6.24l.32-.58a42.87,42.87,0,0,1,2.47-3.91l.49-.67a55.45,55.45,0,0,1,3.77-4.62l.6-.67.6-.65.58-.6c.44-.44.87-.9,1.34-1.34l.67-.65,1.36-1.25.69-.62,1.46-1.25c1.23-1,2.52-2,3.86-3l1.18-.86,1.2-.83.9-.6h0l.37-.23.37-.26,114.06-73.51a69.54,69.54,0,0,1,13.74,12.69C2588.82,2341.28,2577.65,2363.61,2550.56,2386.05Z" transform="translate(-1985.13 -2173.33)"/></svg>