<svg id="Ebene_1" data-name="Ebene 1" xmlns="http://www.w3.org/2000/svg" xmlns:xlink="http://www.w3.org/1999/xlink" viewBox="0 0 1993.28 1191.15"><defs><style>.cls-1{fill:#ffcc01;}.cls-2{fill:#ffd715;}.cls-3{fill:#ffdb53;}.cls-4{fill:url(#Unbenannter_Verlauf_3);}.cls-5{fill:url(#Unbenannter_Verlauf_3-2);}.cls-6{fill:url(#Unbenannter_Verlauf_3-3);}.cls-7{fill:url(#Unbenannter_Verlauf_3-4);}.cls-8{fill:url(#Unbenannter_Verlauf_3-5);}.cls-9{fill:url(#Unbenannter_Verlauf_3-6);}.cls-10{fill:url(#Unbenannter_Verlauf_3-7);}.cls-11{fill:url(#Unbenannter_Verlauf_3-8);}.cls-12{fill:url(#Unbenannter_Verlauf_3-9);}.cls-13{fill:url(#Unbenannter_Verlauf_3-10);}.cls-14{fill:url(#Unbenannter_Verlauf_3-11);}.cls-15{fill:url(#Unbenannter_Verlauf_3-12);}.cls-16{fill:url(#Unbenannter_Verlauf_3-13);}.cls-17{fill:url(#Unbenannter_Verlauf_3-14);}.cls-18{fill:url(#Unbenannter_Verlauf_3-15);}.cls-19{fill:url(#Unbenannter_Verlauf_3-16);}.cls-20{fill:url(#Unbenannter_Verlauf_3-17);}.cls-21{fill:url(#Unbenannter_Verlauf_3-18);}</style><linearGradient id="Unbenannter_Verlauf_3" x1="2138.14" y1="2201.27" x2="1919.29" y2="2325.09" gradientTransform="matrix(1, 0, 0, -1, -59.88, 4845.14)" gradientUnits="userSpaceOnUse"><stop offset="0" stop-color="#e69a24"/><stop offset="1" stop-color="#e2aa00"/></linearGradient><linearGradient id="Unbenannter_Verlauf_3-2" x1="2189.31" y1="2215.71" x2="1936.61" y2="2358.72" xlink:href="#Unbenannter_Verlauf_3"/><linearGradient id="Unbenannter_Verlauf_3-3" x1="2165.52" y1="2225.61" x2="1938.65" y2="2353.98" xlink:href="#Unbenannter_Verlauf_3"/><linearGradient id="Unbenannter_Verlauf_3-4" x1="2216.81" y1="2369.01" x2="1997.96" y2="2492.82" xlink:href="#Unbenannter_Verlauf_3"/><linearGradient id="Unbenannter_Verlauf_3-5" x1="2267.97" y1="2383.45" x2="2015.28" y2="2526.46" xlink:href="#Unbenannter_Verlauf_3"/><linearGradient id="Unbenannter_Verlauf_3-6" x1="2244.19" y1="2393.35" x2="2017.31" y2="2521.72" xlink:href="#Unbenannter_Verlauf_3"/><linearGradient id="Unbenannter_Verlauf_3-7" x1="2169.07" y1="2576.94" x2="1950.22" y2="2700.75" xlink:href="#Unbenannter_Verlauf_3"/><linearGradient id="Unbenannter_Verlauf_3-8" x1="2220.24" y1="2591.38" x2="1967.54" y2="2734.38" xlink:href="#Unbenannter_Verlauf_3"/><linearGradient id="Unbenannter_Verlauf_3-9" x1="2196.45" y1="2601.28" x2="1969.58" y2="2729.65" xlink:href="#Unbenannter_Verlauf_3"/><linearGradient id="Unbenannter_Verlauf_3-10" x1="3023.02" y1="2112.92" x2="2804.17" y2="2236.73" xlink:href="#Unbenannter_Verlauf_3"/><linearGradient id="Unbenannter_Verlauf_3-11" x1="3074.19" y1="2127.36" x2="2821.49" y2="2270.36" xlink:href="#Unbenannter_Verlauf_3"/><linearGradient id="Unbenannter_Verlauf_3-12" x1="3050.4" y1="2137.26" x2="2823.52" y2="2265.63" xlink:href="#Unbenannter_Verlauf_3"/><linearGradient id="Unbenannter_Verlauf_3-13" x1="3101.69" y1="2280.65" x2="2882.83" y2="2404.47" xlink:href="#Unbenannter_Verlauf_3"/><linearGradient id="Unbenannter_Verlauf_3-14" x1="3152.85" y1="2295.1" x2="2900.16" y2="2438.1" xlink:href="#Unbenannter_Verlauf_3"/><linearGradient id="Unbenannter_Verlauf_3-15" x1="3129.06" y1="2305" x2="2902.19" y2="2433.37" xlink:href="#Unbenannter_Verlauf_3"/><linearGradient id="Unbenannter_Verlauf_3-16" x1="2704.88" y1="2567.65" x2="2486.03" y2="2691.47" gradientTransform="matrix(0.97, 0.26, 0.26, -0.97, -645.81, 4019.02)" xlink:href="#Unbenannter_Verlauf_3"/><linearGradient id="Unbenannter_Verlauf_3-17" x1="2756.05" y1="2582.1" x2="2503.35" y2="2725.1" gradientTransform="matrix(0.97, 0.26, 0.26, -0.97, -645.81, 4019.02)" xlink:href="#Unbenannter_Verlauf_3"/><linearGradient id="Unbenannter_Verlauf_3-18" x1="2732.26" y1="2592" x2="2505.38" y2="2720.37" gradientTransform="matrix(0.97, 0.26, 0.26, -0.97, -645.81, 4019.02)" xlink:href="#Unbenannter_Verlauf_3"/></defs><path class="cls-1" d="M2018.23,2848.8c-284.34,0-514.87-120.21-514.87-257.43v167.3c0,137.27,230.53,248.55,514.87,248.55s514.87-111.28,514.87-248.55v-167.3c0,137.27-230.53,257.43-514.87,257.43" transform="translate(-1503.36 -1904.42)"/><path class="cls-2" d="M2533.1,2591.51c0,137.27-230.53,257.43-514.87,257.43s-514.87-120.21-514.87-257.43,230.53-237.63,514.87-237.63,514.87,100.36,514.87,237.63" transform="translate(-1503.36 -1904.42)"/><path class="cls-1" d="M2018.23,2769.07c-270.94,0-435.67-105.16-435.67-177.56s164.73-178.22,435.67-178.22,435.64,105.84,435.64,178.22-164.71,177.56-435.64,177.56" transform="translate(-1503.36 -1904.42)"/><path class="cls-3" d="M2049.92,2754.18c-7.05.16-14.24.23-21.45.23-251.61,0-404.55-97.64-404.55-164.85s153-165.52,404.55-165.52c7.21,0,14.4,0,21.45.26-238.8,5.38-383.1,100-383.1,165.26S1811.12,2748.82,2049.92,2754.18Z" transform="translate(-1503.36 -1904.42)"/><path class="cls-4" d="M2012.4,2537.64l-43.5,28.11-.49.33-.37.23h0l-.9.6-1.2.83-1.18.86c-1.34,1-2.64,2-3.86,3l-1.46,1.25-.69.62-1.37,1.25-.67.65c-.46.44-.9.9-1.34,1.34l-.58.6-.6.65-.6.67c-1.33,1.47-2.59,3-3.77,4.62l-.48.67a46.52,46.52,0,0,0-2.64,4l-.32.57a44,44,0,0,0-2.91,6.36c0,.21-.17.42-.23.6s-.19.49-.26.74l-.14.39-.21.63-.13.48c-.14.47-.28.93-.4,1.39s-.16.65-.23,1a3.33,3.33,0,0,0-.11.53c-.24,1-.44,2-.58,3q0,.32,0,.63c0,.41-.12.83-.16,1.24a1.76,1.76,0,0,0,0,.54v.67a2.35,2.35,0,0,0,0,.53v.72c-.54,14.56,6.93,29.22,22.23,41.05l-71.66-47.67c-31.62-21.08-29.77-56,5.57-75.43,30.84-16.94,76.77-13.87,105,4.93Z" transform="translate(-1503.36 -1904.42)"/><path class="cls-5" d="M2139.69,2611.62,2025.76,2685l-2.49-1.67c-17.92-13.87-25-31.44-21.29-48.29,2.82-12.76,11.83-25.06,27-34.86l49.34-31.81c13.54-11.21,23.11-22.4,28-32.89,3.4-7.36,6.93-18-.28-28.72-3.35-5-7.93-8.18-7.26-8.55s9.06,4.12,44.39,28.39h0C2177,2551,2175.86,2588.27,2139.69,2611.62Z" transform="translate(-1503.36 -1904.42)"/><path class="cls-6" d="M2068.79,2566.61l-49.34,31.78c-15.21,9.81-24.22,22.13-27,34.87-5.16,23.3,19.85,41.93,15.88,43.71-1.78.81-8.46-2.1-29-17.27l-13.71-9.25-2.49-1.64c-15.38-11.83-22.77-26.49-22.24-41V2607a4.69,4.69,0,0,1,0-.53v-1.2l.34-1.18v-.63c.14-1,.35-2,.58-3a5.23,5.23,0,0,1,.12-.54,3.9,3.9,0,0,1,.23-1c.09-.32.25-.92.39-1.38l.14-.49.21-.62.14-.4a2.49,2.49,0,0,1,.25-.74c.09-.25.14-.39.23-.6a44.67,44.67,0,0,1,2.89-6.24l.33-.58a42.71,42.71,0,0,1,2.47-3.9l.49-.67a57.56,57.56,0,0,1,3.76-4.63l.6-.67.61-.65.57-.6c.44-.44.88-.9,1.34-1.34l.68-.65,1.36-1.24.69-.63,1.46-1.25c1.22-1,2.52-2,3.86-3l1.18-.86,1.2-.83.9-.6h0l.37-.23.37-.26,114.06-73.51a69.51,69.51,0,0,1,13.73,12.69C2107,2521.83,2095.88,2544.16,2068.79,2566.61Z" transform="translate(-1503.36 -1904.42)"/><path class="cls-1" d="M2096.89,2681.06c-284.34,0-514.86-120.21-514.86-257.43v167.3c0,137.27,230.52,248.55,514.86,248.55s514.87-111.28,514.87-248.55v-167.3c0,137.27-230.52,257.43-514.87,257.43" transform="translate(-1503.36 -1904.42)"/><path class="cls-2" d="M2611.76,2423.77c0,137.27-230.52,257.43-514.87,257.43S1582,2561,1582,2423.77s230.52-237.63,514.86-237.63,514.87,100.36,514.87,237.63" transform="translate(-1503.36 -1904.42)"/><path class="cls-1" d="M2096.89,2601.33c-270.93,0-435.66-105.16-435.66-177.56s164.73-178.21,435.66-178.21,435.65,105.83,435.65,178.21-164.71,177.56-435.65,177.56" transform="translate(-1503.36 -1904.42)"/><path class="cls-3" d="M2128.59,2586.44c-7.05.17-14.24.23-21.45.23-251.61,0-404.56-97.64-404.56-164.84s153-165.52,404.56-165.52c7.21,0,14.4,0,21.45.25-238.8,5.39-383.1,100-383.1,165.27S1889.79,2581.08,2128.59,2586.44Z" transform="translate(-1503.36 -1904.42)"/><path class="cls-7" d="M2091.07,2369.9,2047.56,2398l-.48.33-.37.23h0l-.9.6-1.21.83-1.18.86c-1.34,1-2.63,2-3.86,3l-1.45,1.25-.7.63-1.36,1.24-.67.65c-.46.44-.9.9-1.34,1.34l-.58.6-.6.65-.6.67a59.35,59.35,0,0,0-3.77,4.62l-.49.67a44.19,44.19,0,0,0-2.63,4l-.32.57a45.1,45.1,0,0,0-2.92,6.36,1.82,1.82,0,0,1-.23.6c-.07.19-.18.49-.25.74l-.14.4-.21.62-.14.49c-.14.46-.28.92-.39,1.38s-.16.65-.23,1a5.23,5.23,0,0,0-.12.54c-.23,1-.44,2-.58,3q0,.32,0,.63a11,11,0,0,1-.16,1.25,2.12,2.12,0,0,0,0,.53v.67a4.69,4.69,0,0,0,0,.53v.72c-.53,14.56,6.94,29.22,22.24,41.05l-71.66-47.66c-31.63-21.09-29.78-56,5.57-75.44,30.84-16.94,76.77-13.87,105,4.93Z" transform="translate(-1503.36 -1904.42)"/><path class="cls-8" d="M2218.35,2443.88l-113.92,73.42-2.5-1.66c-17.91-13.88-25-31.44-21.29-48.3,2.82-12.76,11.84-25.06,27.05-34.86l49.33-31.81c13.55-11.21,23.12-22.4,28-32.89,3.4-7.35,6.94-18-.27-28.71-3.36-5-7.93-8.19-7.26-8.56s9.06,4.12,44.38,28.39h0C2255.62,2383.22,2254.53,2420.53,2218.35,2443.88Z" transform="translate(-1503.36 -1904.42)"/><path class="cls-9" d="M2147.45,2398.87l-49.33,31.79c-15.21,9.8-24.23,22.12-27,34.86-5.15,23.3,19.86,41.93,15.88,43.71-1.78.81-8.46-2.1-29-17.27l-13.71-9.24-2.5-1.65c-15.37-11.83-22.77-26.49-22.24-41.05v-.72a4.69,4.69,0,0,1,0-.53v-1.2l.35-1.18v-.63c.14-1,.35-2,.58-3,0-.18.07-.36.11-.54a3.53,3.53,0,0,1,.24-1c.09-.32.25-.92.39-1.38l.14-.49.21-.62.13-.4a2.52,2.52,0,0,1,.26-.74c.09-.25.14-.39.23-.6a44.67,44.67,0,0,1,2.89-6.24l.32-.58a44.24,44.24,0,0,1,2.48-3.9l.48-.67q1.77-2.42,3.77-4.63l.6-.67.6-.64.58-.61c.44-.43.88-.9,1.34-1.34l.67-.64,1.37-1.25.69-.63,1.46-1.24c1.22-1,2.52-2,3.86-3l1.17-.86,1.21-.83.9-.6h0l.37-.23.37-.25,114.06-73.52a69.81,69.81,0,0,1,13.73,12.69C2185.71,2354.09,2174.55,2376.42,2147.45,2398.87Z" transform="translate(-1503.36 -1904.42)"/><path class="cls-1" d="M2049.16,2473.13c-284.34,0-514.87-120.21-514.87-257.43V2383c0,137.27,230.53,248.56,514.87,248.56S2564,2520.27,2564,2383V2215.7c0,137.27-230.53,257.43-514.87,257.43" transform="translate(-1503.36 -1904.42)"/><path class="cls-2" d="M2564,2215.84c0,137.27-230.53,257.43-514.87,257.43s-514.87-120.21-514.87-257.43,230.53-237.62,514.87-237.62S2564,2078.57,2564,2215.84" transform="translate(-1503.36 -1904.42)"/><path class="cls-1" d="M2049.16,2393.4c-270.94,0-435.67-105.16-435.67-177.56s164.73-178.21,435.67-178.21,435.64,105.83,435.64,178.21-164.71,177.56-435.64,177.56" transform="translate(-1503.36 -1904.42)"/><path class="cls-3" d="M2080.85,2378.52c-7,.16-14.24.23-21.45.23-251.61,0-404.55-97.65-404.55-164.85s153-165.52,404.55-165.52c7.21,0,14.4,0,21.45.25-238.8,5.39-383.1,100-383.1,165.27S1842.05,2373.15,2080.85,2378.52Z" transform="translate(-1503.36 -1904.42)"/><path class="cls-10" d="M2043.33,2162l-43.5,28.11-.49.32-.37.23h0l-.9.6-1.2.83-1.18.86c-1.34,1-2.64,2-3.86,3l-1.46,1.25-.69.63-1.37,1.25-.67.64c-.46.44-.9.9-1.34,1.34l-.58.6-.6.65-.6.67q-2,2.22-3.77,4.63l-.48.67a44.88,44.88,0,0,0-2.64,4l-.32.58a43.84,43.84,0,0,0-2.91,6.35c0,.21-.17.42-.23.61s-.19.48-.26.73l-.14.4-.21.62-.13.49c-.14.46-.28.92-.4,1.38s-.16.65-.23,1a3.12,3.12,0,0,0-.11.53,30.57,30.57,0,0,0-.58,3c0,.2,0,.41,0,.62,0,.42-.12.83-.16,1.25a1.7,1.7,0,0,0,0,.53v.67a2.35,2.35,0,0,0,0,.53v.72c-.54,14.56,6.93,29.22,22.24,41l-71.67-47.66c-31.62-21.09-29.77-56,5.57-75.43,30.84-17,76.78-13.88,105,4.92Z" transform="translate(-1503.36 -1904.42)"/><path class="cls-11" d="M2170.62,2236l-113.93,73.42-2.49-1.66c-17.92-13.87-25-31.44-21.29-48.3,2.82-12.76,11.83-25,27-34.86l49.34-31.81c13.54-11.21,23.11-22.4,28-32.89,3.4-7.35,6.93-18-.28-28.71-3.35-5-7.93-8.19-7.26-8.56s9.06,4.12,44.39,28.39h0C2207.88,2175.29,2206.79,2212.6,2170.62,2236Z" transform="translate(-1503.36 -1904.42)"/><path class="cls-12" d="M2099.72,2190.94l-49.34,31.79c-15.21,9.8-24.22,22.12-27,34.86-5.16,23.3,19.85,41.93,15.88,43.71-1.78.81-8.46-2.1-29-17.27l-13.71-9.24-2.49-1.64c-15.38-11.84-22.77-26.5-22.24-41.06v-.72a4.68,4.68,0,0,1,0-.53v-1.2l.34-1.18v-.62c.14-1,.35-2,.58-3a4.54,4.54,0,0,1,.12-.53,3.7,3.7,0,0,1,.23-1c.09-.33.25-.93.39-1.39l.14-.49.21-.62.14-.39a2.31,2.31,0,0,1,.25-.74,6.39,6.39,0,0,1,.23-.6,44.79,44.79,0,0,1,2.89-6.25l.33-.57a42.87,42.87,0,0,1,2.47-3.91l.49-.67a57.56,57.56,0,0,1,3.76-4.63l.61-.67.6-.64.57-.6c.44-.44.88-.91,1.34-1.34l.68-.65,1.36-1.25.69-.62,1.46-1.25c1.22-1,2.52-2,3.86-3l1.18-.85,1.2-.84.9-.6h0l.37-.23.37-.25,114.06-73.51a69.21,69.21,0,0,1,13.73,12.69C2138,2146.16,2126.81,2168.49,2099.72,2190.94Z" transform="translate(-1503.36 -1904.42)"/><path class="cls-1" d="M2903.11,2937.15c-284.35,0-514.87-120.21-514.87-257.43V2847c0,137.27,230.52,248.56,514.87,248.56S3418,2984.29,3418,2847v-167.3c0,137.27-230.52,257.43-514.86,257.43" transform="translate(-1503.36 -1904.42)"/><path class="cls-2" d="M3418,2679.86c0,137.27-230.52,257.43-514.86,257.43s-514.87-120.21-514.87-257.43,230.52-237.62,514.87-237.62S3418,2542.59,3418,2679.86" transform="translate(-1503.36 -1904.42)"/><path class="cls-1" d="M2903.11,2857.42c-270.94,0-435.67-105.16-435.67-177.56s164.73-178.21,435.67-178.21,435.64,105.83,435.64,178.21S3174,2857.42,2903.11,2857.42" transform="translate(-1503.36 -1904.42)"/><path class="cls-3" d="M2934.8,2842.54c-7.05.16-14.24.23-21.45.23-251.61,0-404.56-97.65-404.56-164.85s153-165.52,404.56-165.52c7.21,0,14.4,0,21.45.25-238.8,5.39-383.1,100-383.1,165.27S2696,2837.17,2934.8,2842.54Z" transform="translate(-1503.36 -1904.42)"/><path class="cls-13" d="M2897.28,2626l-43.51,28.11-.48.32-.37.23h0l-.9.6-1.21.84-1.17.85c-1.35,1-2.64,2-3.87,3l-1.45,1.24-.69.63-1.37,1.25-.67.64c-.46.44-.9.91-1.34,1.34l-.58.61-.6.64-.6.67q-2,2.22-3.77,4.63l-.48.67a44.88,44.88,0,0,0-2.64,4l-.32.58a45,45,0,0,0-2.92,6.35,2,2,0,0,1-.23.61c-.07.18-.18.48-.25.74l-.14.39-.21.62-.14.49c-.14.46-.27.92-.39,1.39s-.16.64-.23,1a4.54,4.54,0,0,0-.12.53,30.54,30.54,0,0,0-.57,3,3.21,3.21,0,0,0,0,.62,10.72,10.72,0,0,1-.17,1.25,2.1,2.1,0,0,0,0,.53v.67a4.68,4.68,0,0,0,0,.53v.72c-.53,14.56,6.94,29.22,22.24,41.06l-71.66-47.67c-31.62-21.09-29.78-56,5.57-75.43,30.84-17,76.77-13.87,105,4.92Z" transform="translate(-1503.36 -1904.42)"/><path class="cls-14" d="M3024.56,2700l-113.92,73.42-2.49-1.66c-17.92-13.87-25-31.44-21.3-48.29,2.82-12.77,11.84-25.06,27.05-34.87l49.33-31.8c13.55-11.22,23.12-22.41,28-32.9,3.39-7.35,6.93-18-.28-28.71-3.35-5-7.93-8.19-7.26-8.56s9.06,4.12,44.38,28.39h0C3061.83,2639.31,3060.74,2676.62,3024.56,2700Z" transform="translate(-1503.36 -1904.42)"/><path class="cls-15" d="M2953.66,2655l-49.33,31.79c-15.21,9.8-24.23,22.12-27,34.86-5.15,23.3,19.86,41.93,15.89,43.71-1.78.81-8.47-2.1-29-17.26l-13.71-9.25-2.5-1.64c-15.37-11.84-22.77-26.5-22.23-41.06v-.72a2.35,2.35,0,0,1,0-.53v-1.2l.34-1.18v-.62c.14-1,.35-2,.58-3a4.54,4.54,0,0,1,.12-.53,3.7,3.7,0,0,1,.23-1c.09-.33.25-.93.39-1.39l.14-.49.21-.62.14-.39a2.31,2.31,0,0,1,.25-.74,6.39,6.39,0,0,1,.23-.6,44.79,44.79,0,0,1,2.89-6.25l.32-.57a45.26,45.26,0,0,1,2.48-3.91l.48-.67a57.93,57.93,0,0,1,3.77-4.62l.6-.67.6-.65.58-.6c.44-.44.88-.9,1.34-1.34l.67-.65,1.37-1.25.69-.62,1.46-1.25c1.22-1,2.52-2,3.86-3l1.18-.85,1.2-.83.9-.61h0l.37-.23.37-.25,114.06-73.51a69.21,69.21,0,0,1,13.73,12.69C2991.92,2610.18,2980.76,2632.52,2953.66,2655Z" transform="translate(-1503.36 -1904.42)"/><path class="cls-1" d="M2981.77,2769.42c-284.34,0-514.87-120.21-514.87-257.44v167.3c0,137.27,230.53,248.56,514.87,248.56s514.87-111.29,514.87-248.56V2512c0,137.27-230.53,257.44-514.87,257.44" transform="translate(-1503.36 -1904.42)"/><path class="cls-2" d="M3496.64,2512.12c0,137.27-230.53,257.43-514.87,257.43s-514.87-120.2-514.87-257.43,230.53-237.62,514.87-237.62,514.87,100.35,514.87,237.62" transform="translate(-1503.36 -1904.42)"/><path class="cls-1" d="M2981.77,2689.68c-270.93,0-435.67-105.16-435.67-177.56s164.74-178.21,435.67-178.21,435.65,105.83,435.65,178.21-164.71,177.56-435.65,177.56" transform="translate(-1503.36 -1904.42)"/><path class="cls-3" d="M3013.47,2674.8c-7,.16-14.24.23-21.46.23-251.61,0-404.55-97.65-404.55-164.85s153-165.52,404.55-165.52c7.22,0,14.41,0,21.46.25-238.81,5.39-383.1,100-383.1,165.27S2774.66,2669.43,3013.47,2674.8Z" transform="translate(-1503.36 -1904.42)"/><path class="cls-16" d="M2976,2458.26l-43.51,28.11-.49.32-.37.23h0l-.9.6-1.2.84-1.18.85c-1.34,1-2.63,2-3.86,3l-1.45,1.25-.7.62-1.36,1.25-.67.65c-.47.43-.9.9-1.34,1.34l-.58.6-.6.64-.6.67a55.59,55.59,0,0,0-3.77,4.63l-.49.67a42.71,42.71,0,0,0-2.63,4l-.33.58a44.54,44.54,0,0,0-2.91,6.36,2,2,0,0,1-.23.6c-.07.18-.18.48-.25.74l-.14.39-.21.62-.14.49c-.14.46-.28.92-.39,1.39s-.16.64-.23,1a4.54,4.54,0,0,0-.12.53c-.23,1-.44,2-.58,3,0,.21,0,.41,0,.62a10.68,10.68,0,0,1-.16,1.25,1.67,1.67,0,0,0,0,.53v.67a4.68,4.68,0,0,0,0,.53v.72c-.53,14.56,6.94,29.22,22.24,41.06L2855.14,2522c-31.63-21.08-29.78-56,5.57-75.43,30.84-16.95,76.77-13.87,105,4.92Z" transform="translate(-1503.36 -1904.42)"/><path class="cls-17" d="M3103.23,2532.23l-113.92,73.42-2.5-1.66c-17.91-13.87-25-31.44-21.29-48.29,2.82-12.76,11.84-25.06,27.05-34.86L3041.9,2489c13.55-11.21,23.12-22.4,28-32.9,3.4-7.35,6.94-18-.28-28.71-3.35-5-7.92-8.18-7.25-8.55s9.06,4.11,44.38,28.38h0C3140.5,2471.57,3139.41,2508.88,3103.23,2532.23Z" transform="translate(-1503.36 -1904.42)"/><path class="cls-18" d="M3032.33,2487.22,2983,2519c-15.21,9.8-24.23,22.12-27.05,34.86-5.15,23.3,19.86,41.94,15.88,43.72-1.78.8-8.46-2.11-29-17.27l-13.71-9.25-2.5-1.64c-15.37-11.84-22.77-26.49-22.24-41.06v-.71a4.86,4.86,0,0,1,0-.54v-1.2l.35-1.18v-.62c.14-1,.35-2,.58-3a3.12,3.12,0,0,1,.11-.53,3.8,3.8,0,0,1,.23-1c.1-.33.26-.93.4-1.39l.14-.48.2-.63.14-.39a2.12,2.12,0,0,1,.26-.74c.09-.26.14-.39.23-.6a43.55,43.55,0,0,1,2.89-6.24l.32-.58a45.16,45.16,0,0,1,2.47-3.91l.49-.67a57.53,57.53,0,0,1,3.77-4.62l.6-.67.6-.65.58-.6c.44-.44.88-.9,1.34-1.34l.67-.65,1.36-1.25.7-.62,1.45-1.25c1.23-1,2.52-2,3.86-3l1.18-.85,1.21-.83.9-.6h0l.37-.24.37-.25L3046.18,2413a69.77,69.77,0,0,1,13.73,12.69C3070.59,2442.45,3059.42,2464.78,3032.33,2487.22Z" transform="translate(-1503.36 -1904.42)"/><path class="cls-1" d="M2519.57,2419.62c-274.69-73.44-466.35-249.12-430.9-381.68l-43.21,161.62c-35.46,132.61,158.5,299.66,433.19,373.11s526.14,25.48,561.6-107.14l43.21-161.62c-35.46,132.61-289.2,189.16-563.89,115.71" transform="translate(-1503.36 -1904.42)"/><path class="cls-2" d="M3083.42,2304.05c-35.45,132.61-289.19,189.15-563.89,115.71s-466.34-249.12-430.9-381.69,284.08-170,558.78-96.57,471.47,229.93,436,362.55" transform="translate(-1503.36 -1904.42)"/><path class="cls-1" d="M2540.16,2342.6c-261.74-70-393.72-214.13-375-284.07s205.18-129.62,466.92-59.64,393.53,214.77,374.83,284.69-205,129-466.73,59" transform="translate(-1503.36 -1904.42)"/><path class="cls-3" d="M2574.63,2336.4c-6.85-1.67-13.82-3.46-20.79-5.32-243.07-65-365.6-198.83-348.24-263.75s190.53-120.39,433.58-55.41c7,1.87,13.91,3.72,20.66,5.79-232.09-56.48-395.93-2.36-412.79,60.71S2345.32,2269.54,2574.63,2336.4Z" transform="translate(-1503.36 -1904.42)"/><path class="cls-19" d="M2594.31,2117.52,2545,2133.44l-.55.18-.42.13h0l-1,.35-1.38.49-1.36.52c-1.55.6-3.06,1.24-4.51,1.91l-1.73.83-.83.42-1.64.86-.81.45c-.56.3-1.11.64-1.64,1l-.72.43-.74.47-.76.49a57,57,0,0,0-4.83,3.5l-.64.52a43.62,43.62,0,0,0-3.59,3.2l-.46.48a43.41,43.41,0,0,0-4.46,5.39c0,.2-.26.36-.38.52s-.3.42-.43.65l-.24.34-.36.55-.26.43c-.25.41-.51.83-.74,1.24s-.32.59-.47.88-.18.32-.25.48c-.48.9-.94,1.83-1.34,2.78a4.44,4.44,0,0,0-.16.6,12,12,0,0,1-.48,1.17,2.05,2.05,0,0,0-.14.51l-.17.65a4.84,4.84,0,0,0-.14.51l-.18.7c-4.28,13.93-.85,30,10.88,45.4l-56.92-64.56c-25.11-28.53-14.31-61.78,24.86-71.43,34.17-8.41,77.75,6.43,100.19,31.88Z" transform="translate(-1503.36 -1904.42)"/><path class="cls-20" d="M2698.17,2221.86l-129,41.5-2-2.25c-13.73-18-16.05-36.83-8.1-52.15,6-11.6,17.91-21.15,35.14-26.69l55.87-18c16-7.33,28.12-15.67,35.52-24.56,5.18-6.22,11.36-15.63,7.15-27.81-1.95-5.69-5.55-9.95-4.8-10.13s7.69,6.31,35.54,38.89h0C2749.84,2172.88,2739.15,2208.65,2698.17,2221.86Z" transform="translate(-1503.36 -1904.42)"/><path class="cls-21" d="M2641.3,2160.06l-55.87,18c-17.22,5.54-29.12,15.11-35.13,26.69-11,21.18,8.35,45.64,4,46.33-1.93.33-7.63-4.21-23.59-24.18l-10.85-12.47-2-2.23c-11.8-15.41-15.16-31.48-10.88-45.41l.18-.69a4.42,4.42,0,0,1,.14-.52l.17-.64.14-.52.64-1,.16-.6c.4-.95.86-1.88,1.34-2.78.08-.16.16-.32.25-.48a3.8,3.8,0,0,1,.48-.88c.17-.29.48-.83.73-1.24l.26-.43.37-.55.23-.34a2.26,2.26,0,0,1,.44-.65,4.68,4.68,0,0,1,.38-.52,45.38,45.38,0,0,1,4.4-5.29l.46-.47a46,46,0,0,1,3.4-3.14l.64-.52a59.39,59.39,0,0,1,4.84-3.49l.75-.49.75-.47.71-.44c.54-.31,1.08-.64,1.64-.94l.82-.46,1.64-.85.83-.42,1.73-.83c1.45-.67,3-1.32,4.51-1.91l1.36-.52,1.37-.5,1-.34h0l.41-.13.43-.15L2673.85,2092a69.84,69.84,0,0,1,10,15.81C2689.83,2126.69,2673.27,2145.38,2641.3,2160.06Z" transform="translate(-1503.36 -1904.42)"/></svg>