<svg id="Ebene_1" data-name="Ebene 1" xmlns="http://www.w3.org/2000/svg" xmlns:xlink="http://www.w3.org/1999/xlink" viewBox="0 0 482.19 482.47"><defs><style>.cls-1{fill:#ffcc01;}.cls-2{fill:#ffd715;}.cls-3{fill:#ffdb53;}.cls-4{fill:url(#Unbenannter_Verlauf_3);}.cls-5{fill:url(#Unbenannter_Verlauf_3-2);}.cls-6{fill:url(#Unbenannter_Verlauf_3-3);}.cls-7{fill:url(#Unbenannter_Verlauf_3-4);}.cls-8{fill:url(#Unbenannter_Verlauf_3-5);}.cls-9{fill:url(#Unbenannter_Verlauf_3-6);}.cls-10{fill:#ff8659;}.cls-11{fill:#ff4a4a;}</style><linearGradient id="Unbenannter_Verlauf_3" x1="316.71" y1="48.69" x2="222.04" y2="102.25" gradientTransform="matrix(1, 0, 0, -1, -59.88, 328.5)" gradientUnits="userSpaceOnUse"><stop offset="0" stop-color="#e69a24"/><stop offset="1" stop-color="#e2aa00"/></linearGradient><linearGradient id="Unbenannter_Verlauf_3-2" x1="338.85" y1="54.94" x2="229.54" y2="116.8" xlink:href="#Unbenannter_Verlauf_3"/><linearGradient id="Unbenannter_Verlauf_3-3" x1="328.56" y1="59.22" x2="230.42" y2="114.75" xlink:href="#Unbenannter_Verlauf_3"/><linearGradient id="Unbenannter_Verlauf_3-4" x1="345.32" y1="123.69" x2="250.65" y2="177.25" xlink:href="#Unbenannter_Verlauf_3"/><linearGradient id="Unbenannter_Verlauf_3-5" x1="367.45" y1="129.94" x2="258.14" y2="191.8" xlink:href="#Unbenannter_Verlauf_3"/><linearGradient id="Unbenannter_Verlauf_3-6" x1="357.16" y1="134.22" x2="259.02" y2="189.75" xlink:href="#Unbenannter_Verlauf_3"/></defs><path class="cls-1" d="M230.87,368.46c-123,0-222.72-52-222.72-111.36v72.37C8.15,388.85,107.87,437,230.87,437s222.72-48.14,222.72-107.52V257.1c0,59.38-99.73,111.36-222.72,111.36"/><path class="cls-2" d="M453.59,257.16c0,59.38-99.73,111.36-222.72,111.36S8.15,316.52,8.15,257.16s99.72-102.79,222.72-102.79,222.72,43.41,222.72,102.79"/><path class="cls-1" d="M230.87,334c-117.2,0-188.46-45.49-188.46-76.81s71.26-77.09,188.46-77.09,188.44,45.78,188.44,77.09S348.06,334,230.86,334"/><path class="cls-3" d="M244.58,327.53c-3.05.07-6.16.1-9.28.1-108.84,0-175-42.24-175-71.31s66.17-71.6,175-71.6c3.12,0,6.23,0,9.28.11-103.3,2.33-165.72,43.25-165.72,71.49S141.28,325.21,244.58,327.53Z"/><path class="cls-4" d="M228.35,233.86,209.53,246l-.21.14-.16.1h0l-.39.26-.52.36-.51.37c-.58.42-1.15.86-1.68,1.3l-.63.54-.29.27-.59.54-.3.28c-.2.19-.39.39-.57.58l-.25.26-.26.28-.27.29c-.57.64-1.12,1.31-1.63,2l-.21.29a17.84,17.84,0,0,0-1.13,1.74l-.15.25a19.37,19.37,0,0,0-1.25,2.75.82.82,0,0,1-.1.26c0,.08-.08.21-.11.32l-.06.17-.09.27-.06.21c-.06.2-.12.4-.17.6s-.07.28-.1.42a1.06,1.06,0,0,0-.05.23c-.1.43-.19.87-.25,1.31a1.22,1.22,0,0,0,0,.27,5,5,0,0,1-.07.54.79.79,0,0,0,0,.23v.29a.88.88,0,0,0,0,.23v.31c-.23,6.3,3,12.64,9.62,17.76l-31-20.62c-13.68-9.12-12.88-24.22,2.41-32.63,13.34-7.33,33.21-6,45.43,2.13Z"/><path class="cls-5" d="M283.41,265.86l-49.28,31.76-1.08-.72c-7.75-6-10.82-13.6-9.21-20.89,1.22-5.52,5.12-10.84,11.7-15.08l21.34-13.76c5.86-4.85,10-9.69,12.1-14.23,1.47-3.18,3-7.8-.12-12.42-1.45-2.16-3.43-3.54-3.14-3.7s3.92,1.78,19.2,12.28h0C299.53,239.62,299.06,255.76,283.41,265.86Z"/><path class="cls-6" d="M252.74,246.39,231.4,260.14c-6.58,4.24-10.48,9.57-11.7,15.08-2.24,10.08,8.58,18.14,6.86,18.91-.76.35-3.66-.91-12.56-7.47l-5.92-4L207,282c-6.65-5.12-9.85-11.46-9.62-17.76v-.31a.88.88,0,0,1,0-.23v-.52l.15-.51v-.27c.06-.44.15-.88.25-1.31a1.06,1.06,0,0,1,.05-.23,1.6,1.6,0,0,1,.1-.42c0-.14.1-.4.17-.6l.06-.21.09-.27.06-.17a1,1,0,0,1,.11-.32,1,1,0,0,1,.1-.26,18.32,18.32,0,0,1,1.25-2.7l.14-.25a17.75,17.75,0,0,1,1.07-1.69l.21-.29a23.72,23.72,0,0,1,1.63-2l.26-.29.26-.28.25-.26.58-.58.29-.28.59-.54.3-.27.63-.54c.53-.44,1.09-.88,1.67-1.3l.51-.37.52-.36.39-.26h0l.16-.1.16-.11,49.34-31.8a30.63,30.63,0,0,1,5.94,5.49C269.29,227,264.46,236.68,252.74,246.39Z"/><path class="cls-1" d="M259.47,293.46c-123,0-222.72-52-222.72-111.36v72.37C36.75,313.85,136.47,362,259.47,362s222.72-48.14,222.72-107.52V182.1c0,59.38-99.72,111.36-222.72,111.36"/><path class="cls-2" d="M482.19,182.16c0,59.38-99.72,111.36-222.72,111.36s-222.72-52-222.72-111.36S136.47,79.37,259.47,79.37s222.72,43.41,222.72,102.79"/><path class="cls-1" d="M259.47,259C142.27,259,71,213.48,71,182.16s71.26-77.09,188.46-77.09,188.45,45.78,188.45,77.09S376.67,259,259.47,259"/><path class="cls-3" d="M273.18,252.53c-3.05.07-6.16.1-9.28.1-108.84,0-175-42.24-175-71.31s66.17-71.6,175-71.6c3.12,0,6.23,0,9.28.11-103.3,2.33-165.72,43.25-165.72,71.49S169.88,250.21,273.18,252.53Z"/><path class="cls-7" d="M257,158.86,238.13,171l-.21.14-.16.1h0l-.39.26-.52.36-.51.37c-.58.42-1.14.86-1.67,1.3l-.63.54-.3.27-.59.54-.29.28c-.2.19-.39.39-.58.58L232,176l-.26.28-.26.29a24.09,24.09,0,0,0-1.63,2l-.21.29a20,20,0,0,0-1.14,1.74l-.14.25a19.53,19.53,0,0,0-1.26,2.75.82.82,0,0,1-.1.26c0,.08-.08.21-.11.32l-.06.17-.09.27-.06.21c-.06.2-.12.4-.17.6s-.07.28-.1.42a1.55,1.55,0,0,0-.05.23c-.1.43-.19.87-.25,1.31a1.22,1.22,0,0,0,0,.27,5,5,0,0,1-.07.54.79.79,0,0,0,0,.23v.29a.89.89,0,0,0,0,.23v.31c-.23,6.3,3,12.64,9.62,17.76l-31-20.62c-13.68-9.12-12.88-24.22,2.41-32.63,13.34-7.33,33.21-6,45.43,2.13Z"/><path class="cls-8" d="M312,190.86l-49.28,31.76-1.08-.72c-7.75-6-10.82-13.6-9.21-20.89,1.22-5.52,5.12-10.84,11.7-15.08l21.34-13.76c5.86-4.85,10-9.69,12.1-14.23,1.47-3.18,3-7.8-.12-12.42-1.45-2.16-3.43-3.54-3.14-3.7s3.92,1.78,19.2,12.28h0C328.13,164.62,327.66,180.76,312,190.86Z"/><path class="cls-9" d="M281.34,171.39,260,185.14c-6.58,4.24-10.48,9.57-11.7,15.08-2.23,10.08,8.59,18.14,6.87,18.91-.77.35-3.66-.91-12.56-7.47l-5.93-4L235.6,207c-6.65-5.12-9.85-11.46-9.62-17.76v-.31a.89.89,0,0,1,0-.23v-.52l.15-.51v-.27c.06-.44.15-.88.25-1.31a1.55,1.55,0,0,1,.05-.23,1.6,1.6,0,0,1,.1-.42c0-.14.11-.4.17-.6l.06-.21.09-.27.06-.17a1,1,0,0,1,.11-.32c0-.11.06-.17.1-.26a19.41,19.41,0,0,1,1.25-2.7l.14-.25a18.51,18.51,0,0,1,1.07-1.69l.21-.29a24.09,24.09,0,0,1,1.63-2l.26-.29.26-.28.25-.26c.19-.19.38-.39.58-.58l.29-.28.59-.54.3-.27.63-.54c.53-.44,1.09-.88,1.67-1.3l.51-.37.52-.36.39-.26h0l.16-.1.16-.11,49.34-31.8a29.77,29.77,0,0,1,5.94,5.49C297.89,152,293.06,161.68,281.34,171.39Z"/><path class="cls-10" d="M42.41,397.66a42.41,42.41,0,1,0,42.4,42.41A42.41,42.41,0,0,0,42.41,397.66Z"/><path class="cls-11" d="M84.81,440.07a42.41,42.41,0,0,0-42.4-42.41v84.81A42.4,42.4,0,0,0,84.81,440.07Z"/><path class="cls-10" d="M42.41,0A42.41,42.41,0,0,0,0,42.41V324.16a42.41,42.41,0,1,0,84.81,0V42.41A42.41,42.41,0,0,0,42.41,0Z"/><path class="cls-11" d="M84.81,324.16V42.41A42.41,42.41,0,0,0,42.41,0V366.57A42.41,42.41,0,0,0,84.81,324.16Z"/></svg>