<?xml version="1.0" encoding="UTF-8" standalone="no" ?>
<!DOCTYPE svg PUBLIC "-//W3C//DTD SVG 1.1//EN" "http://www.w3.org/Graphics/SVG/1.1/DTD/svg11.dtd">
<svg xmlns="http://www.w3.org/2000/svg" xmlns:xlink="http://www.w3.org/1999/xlink" version="1.1" width="1080" height="1080" viewBox="0 0 1080 1080" xml:space="preserve">
<desc>Created with Fabric.js 5.2.4</desc>
<defs>
</defs>
<g transform="matrix(1 0 0 1 540 540)" id="5ea888da-5691-4449-8365-67c7df127f9b"  >
<rect style="stroke: none; stroke-width: 1; stroke-dasharray: none; stroke-linecap: butt; stroke-dashoffset: 0; stroke-linejoin: miter; stroke-miterlimit: 4; fill: rgb(255,255,255); fill-rule: nonzero; opacity: 1; visibility: hidden;" vector-effect="non-scaling-stroke"  x="-540" y="-540" rx="0" ry="0" width="1080" height="1080" />
</g>
<g transform="matrix(1 0 0 1 540 540)" id="d4769aa8-8a7a-405d-940a-c460cd6f698a"  >
</g>
<g transform="matrix(9.96 0 0 9.96 540 540)"  >
<g style=""   >
		<g transform="matrix(1 0 0 1 -6.18 -4.42)"  >
<path style="stroke: none; stroke-width: 1; stroke-dasharray: none; stroke-linecap: butt; stroke-dashoffset: 0; stroke-linejoin: miter; stroke-miterlimit: 4; fill: rgb(220,20,40); fill-rule: nonzero; opacity: 1;" vector-effect="non-scaling-stroke"  transform=" translate(-104.16, -131.49)" d="M 125.956 92.902 C 116.87100000000001 92.902 108.866 97.52 104.156 104.535 C 99.44600000000001 97.52 91.441 92.902 82.35600000000001 92.902 C 67.86300000000001 92.902 56.11500000000001 104.65 56.11500000000001 119.143 C 56.11500000000001 146.595 104.156 170.085 104.156 170.085 C 104.156 170.085 152.197 145.38400000000001 152.197 119.143 C 152.197 104.651 140.448 92.902 125.956 92.902 z" stroke-linecap="round" />
</g>
		<g transform="matrix(1 0 0 1 13.17 -4.42)"  >
<path style="stroke: none; stroke-width: 1; stroke-dasharray: none; stroke-linecap: butt; stroke-dashoffset: 0; stroke-linejoin: miter; stroke-miterlimit: 4; fill: rgb(190,20,35); fill-rule: nonzero; opacity: 1;" vector-effect="non-scaling-stroke"  transform=" translate(-123.51, -131.49)" d="M 125.956 92.902 C 120.688 92.902 115.78800000000001 94.463 111.678 97.135 C 122.009 100.661 129.44299999999998 110.44300000000001 129.44299999999998 121.96900000000001 C 129.44299999999998 139.073 109.03499999999998 155.52 94.82199999999997 164.90200000000002 C 100.32199999999997 168.21 104.15599999999998 170.085 104.15599999999998 170.085 C 104.15599999999998 170.085 152.19699999999997 145.38400000000001 152.19699999999997 119.143 C 152.197 104.651 140.448 92.902 125.956 92.902 z" stroke-linecap="round" />
</g>
		<g transform="matrix(1 0 0 1 19.1 14.8)"  >
<path style="stroke: none; stroke-width: 1; stroke-dasharray: none; stroke-linecap: butt; stroke-dashoffset: 0; stroke-linejoin: miter; stroke-miterlimit: 4; fill: rgb(255,60,60); fill-rule: nonzero; opacity: 1;" vector-effect="non-scaling-stroke"  transform=" translate(-129.44, -150.71)" d="M 145.38 122.495 C 138.738 122.495 132.886 125.87100000000001 129.44299999999998 130.999 C 125.99999999999999 125.86999999999999 120.14699999999999 122.49499999999999 113.50599999999999 122.49499999999999 C 102.91099999999999 122.49499999999999 94.32299999999998 131.084 94.32299999999998 141.679 C 94.32299999999998 161.748 129.444 178.92000000000002 129.444 178.92000000000002 C 129.444 178.92000000000002 164.565 160.86300000000003 164.565 141.67900000000003 C 164.563 131.083 155.974 122.495 145.38 122.495 z" stroke-linecap="round" />
</g>
		<g transform="matrix(1 0 0 1 32.39 14.8)"  >
<path style="stroke: none; stroke-width: 1; stroke-dasharray: none; stroke-linecap: butt; stroke-dashoffset: 0; stroke-linejoin: miter; stroke-miterlimit: 4; fill: rgb(220,20,40); fill-rule: nonzero; opacity: 1;" vector-effect="non-scaling-stroke"  transform=" translate(-142.73, -150.71)" d="M 145.38 122.495 C 142.368 122.495 139.522 123.19500000000001 136.98499999999999 124.432 C 143.36599999999999 127.548 147.76199999999997 134.099 147.76199999999997 141.678 C 147.76199999999997 154.821 131.27899999999997 167.434 120.89699999999998 174.075 C 125.81599999999997 177.14499999999998 129.44199999999998 178.91899999999998 129.44199999999998 178.91899999999998 C 129.44199999999998 178.91899999999998 164.563 160.862 164.563 141.678 C 164.563 131.083 155.975 122.495 145.38 122.495 z" stroke-linecap="round" />
</g>
</g>
</g>
</svg>