<svg id="Ebene_1" data-name="Ebene 1" xmlns="http://www.w3.org/2000/svg" viewBox="0 0 480.3 341.07"><path d="M349.67,127.78c1,1.44,2,2.93,2.92,4.45C351.66,130.71,350.69,129.22,349.67,127.78Zm3.19-104.52C304.2-19,233.42.33,195.78,49.07,100-76.75-70.2,66.22,31.15,181.57L178.49,333.71a23.87,23.87,0,0,0,34.49,0l35.77-36.93c-24.41-57.34-79.94-138.72-19.61-193.48,41.38-43.39,117.21-30.19,143.54,23.85C415,117.58,378.62,43.74,352.86,23.26ZM469.11,173.73c-20.88-38.23-71.94-42-106.13-19.81-12-38.91-53.57-68.76-94.21-52.74-84.76,33.5-31,125.12-5,180.14,2.06,3.64,23.25,55.05,26.73,55.87,4.61,3.51,11.68,5.49,17.75,2.2C362.6,306.05,523.87,269.05,469.11,173.73ZM449.16,152q2.76,1.91,5.34,4.08A65,65,0,0,0,449.16,152Zm5.34,4.08q-2.58-2.18-5.34-4.08A65,65,0,0,1,454.5,156.08Z"/></svg>