<svg id="Capa_1" enable-background="new 0 0 512 512" height="512" viewBox="0 0 512 512" width="512" xmlns="http://www.w3.org/2000/svg"><g><path d="m512 256c0 22.1-2.8 43.54-8.07 64v.03l-247.93 191.97c-119.28 0-219.52-81.59-247.93-192h-.01l87.94-263.85c43.83-35.13 99.46-56.15 160-56.15 80.84 0 152.93 37.48 199.85 96l54.16 128c1.32 10.48 1.99 21.16 1.99 32z" fill="#00b3ff"/><path d="m512 256c0 22.1-2.8 43.54-8.07 64v.03l-247.93 191.97v-512c80.84 0 152.93 37.48 199.85 96l54.16 128c1.32 10.48 1.99 21.16 1.99 32z" fill="#3a80e8"/><path d="m256 224c0 17.67-14.33 32-32 32h-64c-17.06-.082-31.847 14.017-32 32 0 17.67-14.33 32-32 32h-87.94c-5.26-20.46-8.06-41.9-8.06-64 0-80.84 37.48-152.93 96-199.85v39.85c0 17.67 14.33 32 32 32h32c17.06-.082 31.847 14.017 32 32-.082 17.06 14.017 31.847 32 32 17.06-.082 31.847 14.017 32 32z" fill="#bde760"/><path d="m503.93 320v.03c-28.44 110.39-128.66 191.97-247.93 191.97v-32c0-17.67-14.33-32-32-32-17.06.08-31.85-14.02-32-32-.08-17.06 14.02-31.85 32-32h64c17.67 0 32-14.33 32-32-.08-17.06 14.02-31.85 32-32z" fill="#bde760"/><g fill="#00d880"><path d="m503.93 320v.03c-28.44 110.39-128.66 191.97-247.93 191.97v-128h32c17.67 0 32-14.33 32-32-.08-17.06 14.02-31.85 32-32z"/><path d="m510.01 224h-63.09c-17.47 0-31.64-14.17-31.64-31.64.468-17.076-13.6-32.259-31.64-32.36-17.47 0-31.64-14.17-31.64-31.64v-.72c0-17.47 14.17-31.64 31.64-31.64h72.21c28.84 35.98 48.17 79.92 54.16 128z"/></g></g></svg>