<?xml version="1.0" encoding="UTF-8"?>
<!DOCTYPE svg PUBLIC "-//W3C//DTD SVG 1.1//EN" "http://www.w3.org/Graphics/SVG/1.1/DTD/svg11.dtd">
<svg xmlns="http://www.w3.org/2000/svg" version="1.1" width="1016px" height="280px" style="shape-rendering:geometricPrecision; text-rendering:geometricPrecision; image-rendering:optimizeQuality; fill-rule:evenodd; clip-rule:evenodd" xmlns:xlink="http://www.w3.org/1999/xlink">
<g><path style="opacity:1" fill="#e84571" d="M 194.5,13.5 C 201.398,24.1929 205.732,35.8595 207.5,48.5C 207.762,56.2205 207.262,63.8872 206,71.5C 205.692,70.6919 205.192,70.0253 204.5,69.5C 186.669,61.9888 169.502,53.9888 153,45.5C 152.167,46.5 151.333,47.5 150.5,48.5C 150.028,46.599 150.028,44.599 150.5,42.5C 162.479,29.8543 174.812,17.521 187.5,5.5C 189.856,8.18636 192.189,10.853 194.5,13.5 Z"/></g>
<g><path style="opacity:1" fill="#ec386b" d="M 133.5,56.5 C 133.649,57.552 133.483,58.552 133,59.5C 128.593,63.402 124.76,67.7353 121.5,72.5C 120.325,72.281 119.325,72.6143 118.5,73.5C 110.79,81.8736 103.123,90.207 95.5,98.5C 87.3988,104.934 80.7321,112.6 75.5,121.5C 68.4341,129.626 63.4341,138.96 60.5,149.5C 56.5906,158.886 55.5906,168.553 57.5,178.5C 59.1374,189.764 63.4707,199.764 70.5,208.5C 52.5017,191.668 35.335,174.001 19,155.5C -0.449996,125.643 -0.116662,95.9766 20,66.5C 48.6679,33.881 82.5012,27.381 121.5,47C 125.95,49.6193 129.95,52.7859 133.5,56.5 Z"/></g>
<g><path style="opacity:1" fill="#f39179" d="M 194.5,13.5 C 211.465,29.9649 228.299,46.6316 245,63.5C 254.345,74.5241 260.178,87.1907 262.5,101.5C 261.71,102.609 261.21,103.942 261,105.5C 260.667,103.5 260.333,101.5 260,99.5C 259.667,100.833 259.333,102.167 259,103.5C 254.156,99.3228 249.656,94.8228 245.5,90C 241.01,88.811 237.01,86.811 233.5,84C 226.537,78.1473 219.87,71.814 213.5,65C 211.811,65.1343 210.144,65.6343 208.5,66.5C 208.823,60.31 208.49,54.31 207.5,48.5C 205.732,35.8595 201.398,24.1929 194.5,13.5 Z"/></g>
<g><path style="opacity:1" fill="#ea5278" d="M 150.5,42.5 C 150.028,44.599 150.028,46.599 150.5,48.5C 151.333,47.5 152.167,46.5 153,45.5C 169.502,53.9888 186.669,61.9888 204.5,69.5C 205.192,70.0253 205.692,70.6919 206,71.5C 207.262,63.8872 207.762,56.2205 207.5,48.5C 208.49,54.31 208.823,60.31 208.5,66.5C 207.34,73.9697 205.673,81.303 203.5,88.5C 200.928,92.6392 198.595,96.9726 196.5,101.5C 194.955,100.77 194.122,99.437 194,97.5C 193.667,98.1667 193.333,98.8333 193,99.5C 170.956,88.9802 148.622,78.9802 126,69.5C 124.614,70.7286 123.114,71.7286 121.5,72.5C 124.76,67.7353 128.593,63.402 133,59.5C 133.483,58.552 133.649,57.552 133.5,56.5C 134.117,56.6107 134.617,56.944 135,57.5C 140.035,52.2969 145.202,47.2969 150.5,42.5 Z"/></g>
<g><path style="opacity:0.986" fill="#ed6c82" d="M 833.5,63.5 C 844.285,62.1483 852.785,65.815 859,74.5C 862.706,91.728 855.706,101.061 838,102.5C 819.13,100.337 812.464,90.3375 818,72.5C 822.29,67.7786 827.457,64.7786 833.5,63.5 Z"/></g>
<g><path style="opacity:1" fill="#f59877" d="M 262.5,101.5 C 262.5,101.833 262.5,102.167 262.5,102.5C 262.752,111.213 262.252,119.88 261,128.5C 259.447,132.299 258.114,132.299 257,128.5C 256.667,128.833 256.333,129.167 256,129.5C 238.913,115.357 221.413,101.69 203.5,88.5C 205.673,81.303 207.34,73.9697 208.5,66.5C 210.144,65.6343 211.811,65.1343 213.5,65C 219.87,71.814 226.537,78.1473 233.5,84C 237.01,86.811 241.01,88.811 245.5,90C 249.656,94.8228 254.156,99.3228 259,103.5C 259.333,102.167 259.667,100.833 260,99.5C 260.333,101.5 260.667,103.5 261,105.5C 261.21,103.942 261.71,102.609 262.5,101.5 Z"/></g>
<g><path style="opacity:0.992" fill="#ed6c82" d="M 931.5,67.5 C 965.388,63.8491 989.555,77.1825 1004,107.5C 1014.99,139.032 1009.15,166.865 986.5,191C 957.868,211.759 928.535,212.759 898.5,194C 881.271,179.869 872.604,161.536 872.5,139C 873.975,99.7661 893.642,75.9328 931.5,67.5 Z M 938.5,102.5 C 951.758,102.257 959.924,108.59 963,121.5C 967.395,136.284 965.728,150.284 958,163.5C 950.176,171.821 941.009,173.654 930.5,169C 924.389,165.551 920.556,160.385 919,153.5C 915.524,140.633 916.191,127.966 921,115.5C 925.01,108.591 930.844,104.258 938.5,102.5 Z"/></g>
<g><path style="opacity:0.99" fill="#ed6c82" d="M 295.5,69.5 C 311.181,69.1673 326.848,69.5006 342.5,70.5C 349.033,87.9313 354.866,105.598 360,123.5C 365.203,105.391 370.703,87.3911 376.5,69.5C 391.182,69.1674 405.848,69.5007 420.5,70.5C 406.333,99.5 392.167,128.5 378,157.5C 377.5,173.163 377.333,188.83 377.5,204.5C 363.833,204.5 350.167,204.5 336.5,204.5C 336.667,188.83 336.5,173.163 336,157.5C 322.209,128.254 308.709,98.9205 295.5,69.5 Z"/></g>
<g><path style="opacity:0.989" fill="#ed6d83" d="M 431.5,69.5 C 445.5,69.5 459.5,69.5 473.5,69.5C 473.333,97.8353 473.5,126.169 474,154.5C 477.855,170.897 487.355,175.397 502.5,168C 505.231,165.374 507.064,162.207 508,158.5C 509.451,128.87 509.951,99.2031 509.5,69.5C 523.5,69.5 537.5,69.5 551.5,69.5C 551.667,96.5021 551.5,123.502 551,150.5C 548.799,188.534 528.632,207.534 490.5,207.5C 455.293,207.125 435.793,189.458 432,154.5C 431.5,126.169 431.333,97.8353 431.5,69.5 Z"/></g>
<g><path style="opacity:0.988" fill="#ed6c82" d="M 573.5,69.5 C 587.5,69.5 601.5,69.5 615.5,69.5C 615.333,97.502 615.5,125.502 616,153.5C 618.4,168.449 626.9,173.949 641.5,170C 647.354,166.134 650.521,160.634 651,153.5C 651.5,125.502 651.667,97.502 651.5,69.5C 665.5,69.5 679.5,69.5 693.5,69.5C 693.667,97.1687 693.5,124.835 693,152.5C 689.931,189.234 669.931,207.567 633,207.5C 596.587,207.086 576.92,188.753 574,152.5C 573.5,124.835 573.333,97.1687 573.5,69.5 Z"/></g>
<g><path style="opacity:0.997" fill="#ed6c83" d="M 717.5,69.5 C 731.167,69.5 744.833,69.5 758.5,69.5C 758.5,103.833 758.5,138.167 758.5,172.5C 774.167,172.5 789.833,172.5 805.5,172.5C 805.5,183.167 805.5,193.833 805.5,204.5C 776.167,204.5 746.833,204.5 717.5,204.5C 717.5,159.5 717.5,114.5 717.5,69.5 Z"/></g>
<g><path style="opacity:1" fill="#ed5e7c" d="M 196.5,101.5 C 196.167,102.167 195.833,102.833 195.5,103.5C 192.081,107.979 188.414,112.312 184.5,116.5C 180.5,120.167 176.5,123.833 172.5,127.5C 170.661,126.248 168.828,126.248 167,127.5C 165.802,124.634 163.635,122.8 160.5,122C 140.091,113.256 119.758,104.422 99.5,95.5C 98.1482,96.5244 96.8149,97.5244 95.5,98.5C 103.123,90.207 110.79,81.8736 118.5,73.5C 119.325,72.6143 120.325,72.281 121.5,72.5C 123.114,71.7286 124.614,70.7286 126,69.5C 148.622,78.9802 170.956,88.9802 193,99.5C 193.333,98.8333 193.667,98.1667 194,97.5C 194.122,99.437 194.955,100.77 196.5,101.5 Z"/></g>
<g><path style="opacity:1" fill="#f49f79" d="M 203.5,88.5 C 221.413,101.69 238.913,115.357 256,129.5C 256.333,129.167 256.667,128.833 257,128.5C 258.114,132.299 259.447,132.299 261,128.5C 262.252,119.88 262.752,111.213 262.5,102.5C 265.594,120.931 261.927,137.931 251.5,153.5C 251.915,151.253 252.582,149.086 253.5,147C 253.102,145.101 252.102,143.601 250.5,142.5C 249.808,143.025 249.308,143.692 249,144.5C 233.713,131.202 217.88,118.702 201.5,107C 200.15,105.282 198.983,103.448 198,101.5C 197.583,102.756 196.75,103.423 195.5,103.5C 195.833,102.833 196.167,102.167 196.5,101.5C 198.595,96.9726 200.928,92.6392 203.5,88.5 Z"/></g>
<g><path style="opacity:1" fill="#f6a577" d="M 251.5,153.5 C 248.926,158.409 245.592,162.742 241.5,166.5C 242.95,163.62 243.784,160.62 244,157.5C 243,158.5 242,159.5 241,160.5C 240.691,159.234 240.191,158.067 239.5,157C 222.806,143.814 206.139,130.814 189.5,118C 187.975,116.991 186.308,116.491 184.5,116.5C 188.414,112.312 192.081,107.979 195.5,103.5C 196.75,103.423 197.583,102.756 198,101.5C 198.983,103.448 200.15,105.282 201.5,107C 217.88,118.702 233.713,131.202 249,144.5C 249.308,143.692 249.808,143.025 250.5,142.5C 252.102,143.601 253.102,145.101 253.5,147C 252.582,149.086 251.915,151.253 251.5,153.5 Z"/></g>
<g><path style="opacity:1" fill="#ee6c83" d="M 817.5,107.5 C 831.079,107.177 844.579,107.51 858,108.5C 858.5,140.498 858.667,172.498 858.5,204.5C 844.833,204.5 831.167,204.5 817.5,204.5C 817.5,172.167 817.5,139.833 817.5,107.5 Z"/></g>
<g><path style="opacity:1" fill="#ee6c82" d="M 172.5,127.5 C 172.5,127.833 172.5,128.167 172.5,128.5C 168.278,131.969 164.278,135.636 160.5,139.5C 156.5,142.833 152.833,146.5 149.5,150.5C 148.833,150.833 148.167,151.167 147.5,151.5C 123.788,141.559 100.288,131.225 77,120.5C 76.6174,121.056 76.1174,121.389 75.5,121.5C 80.7321,112.6 87.3988,104.934 95.5,98.5C 96.8149,97.5244 98.1482,96.5244 99.5,95.5C 119.758,104.422 140.091,113.256 160.5,122C 163.635,122.8 165.802,124.634 167,127.5C 168.828,126.248 170.661,126.248 172.5,127.5 Z"/></g>
<g><path style="opacity:1" fill="#f6ab76" d="M 184.5,116.5 C 186.308,116.491 187.975,116.991 189.5,118C 206.139,130.814 222.806,143.814 239.5,157C 240.191,158.067 240.691,159.234 241,160.5C 242,159.5 243,158.5 244,157.5C 243.784,160.62 242.95,163.62 241.5,166.5C 239.249,169.295 236.582,171.628 233.5,173.5C 233.141,171.629 232.141,170.129 230.5,169C 228.376,167.878 226.543,166.378 225,164.5C 224.667,165.167 224.333,165.833 224,166.5C 222.77,162.755 220.437,161.088 217,161.5C 214.457,160.124 214.291,158.957 216.5,158C 202.309,146.965 188.976,136.465 176.5,126.5C 175.476,127.853 174.143,128.52 172.5,128.5C 172.5,128.167 172.5,127.833 172.5,127.5C 176.5,123.833 180.5,120.167 184.5,116.5 Z"/></g>
<g><path style="opacity:1" fill="#f7b277" d="M 233.5,173.5 C 229.5,178.167 225.167,182.5 220.5,186.5C 213.928,180.621 207.428,174.621 201,168.5C 200.667,168.833 200.333,169.167 200,169.5C 198.812,168.437 198.312,167.103 198.5,165.5C 196.738,165.643 195.071,165.309 193.5,164.5C 184.62,157.113 175.62,149.946 166.5,143C 164.951,141.786 163.785,140.286 163,138.5C 162.329,139.252 161.496,139.586 160.5,139.5C 164.278,135.636 168.278,131.969 172.5,128.5C 174.143,128.52 175.476,127.853 176.5,126.5C 188.976,136.465 202.309,146.965 216.5,158C 214.291,158.957 214.457,160.124 217,161.5C 220.437,161.088 222.77,162.755 224,166.5C 224.333,165.833 224.667,165.167 225,164.5C 226.543,166.378 228.376,167.878 230.5,169C 232.141,170.129 233.141,171.629 233.5,173.5 Z"/></g>
<g><path style="opacity:1" fill="#f07787" d="M 147.5,151.5 C 140.412,158.919 134.079,166.919 128.5,175.5C 127.5,175.833 126.833,176.5 126.5,177.5C 104.511,168.173 82.5107,158.84 60.5,149.5C 63.4341,138.96 68.4341,129.626 75.5,121.5C 76.1174,121.389 76.6174,121.056 77,120.5C 100.288,131.225 123.788,141.559 147.5,151.5 Z"/></g>
<g><path style="opacity:1" fill="#f8b876" d="M 220.5,186.5 C 216.5,191.167 212.167,195.5 207.5,199.5C 208.048,197.606 209.048,195.94 210.5,194.5C 210.167,194.167 209.833,193.833 209.5,193.5C 208.5,194.167 207.5,194.833 206.5,195.5C 198.701,190.522 191.368,185.022 184.5,179C 185.711,178.107 185.711,177.274 184.5,176.5C 182.224,175.787 179.891,175.287 177.5,175C 171.582,170.086 165.915,164.753 160.5,159C 157.709,157.211 154.709,155.878 151.5,155C 150.185,153.605 150.519,152.605 152.5,152C 151.473,151.487 150.473,150.987 149.5,150.5C 152.833,146.5 156.5,142.833 160.5,139.5C 161.496,139.586 162.329,139.252 163,138.5C 163.785,140.286 164.951,141.786 166.5,143C 175.62,149.946 184.62,157.113 193.5,164.5C 195.071,165.309 196.738,165.643 198.5,165.5C 198.312,167.103 198.812,168.437 200,169.5C 200.333,169.167 200.667,168.833 201,168.5C 207.428,174.621 213.928,180.621 220.5,186.5 Z"/></g>
<g><path style="opacity:1" fill="#f1808a" d="M 60.5,149.5 C 82.5107,158.84 104.511,168.173 126.5,177.5C 123.293,182.581 120.626,187.914 118.5,193.5C 117.833,193.5 117.5,193.833 117.5,194.5C 115.165,191.835 112.165,190.502 108.5,190.5C 108.5,189.5 108.5,188.5 108.5,187.5C 99.9343,185.395 91.601,182.395 83.5,178.5C 82.6143,177.675 82.281,176.675 82.5,175.5C 74.0317,174.396 66.0317,171.729 58.5,167.5C 57.5108,171.107 57.1774,174.774 57.5,178.5C 55.5906,168.553 56.5906,158.886 60.5,149.5 Z"/></g>
<g><path style="opacity:1" fill="#f3888d" d="M 117.5,194.5 C 116.644,198.57 115.477,202.57 114,206.5C 113.501,212.157 113.334,217.824 113.5,223.5C 113.607,225.379 113.107,225.712 112,224.5C 111.667,223.167 111.333,221.833 111,220.5C 110.751,221.624 110.251,222.624 109.5,223.5C 108.949,221.587 108.782,219.587 109,217.5C 106.894,219.291 104.394,219.958 101.5,219.5C 101.5,218.5 101.5,217.5 101.5,216.5C 99.8561,216.286 98.3561,216.62 97,217.5C 96.3076,216.975 95.8076,216.308 95.5,215.5C 89.2734,212.785 82.9401,210.285 76.5,208C 73.6765,203.356 71.6765,203.523 70.5,208.5C 63.4707,199.764 59.1374,189.764 57.5,178.5C 57.1774,174.774 57.5108,171.107 58.5,167.5C 66.0317,171.729 74.0317,174.396 82.5,175.5C 82.281,176.675 82.6143,177.675 83.5,178.5C 91.601,182.395 99.9343,185.395 108.5,187.5C 108.5,188.5 108.5,189.5 108.5,190.5C 112.165,190.502 115.165,191.835 117.5,194.5 Z"/></g>
<g><path style="opacity:1" fill="#fac275" d="M 149.5,150.5 C 150.473,150.987 151.473,151.487 152.5,152C 150.519,152.605 150.185,153.605 151.5,155C 154.709,155.878 157.709,157.211 160.5,159C 165.915,164.753 171.582,170.086 177.5,175C 179.891,175.287 182.224,175.787 184.5,176.5C 185.711,177.274 185.711,178.107 184.5,179C 191.368,185.022 198.701,190.522 206.5,195.5C 207.5,194.833 208.5,194.167 209.5,193.5C 209.833,193.833 210.167,194.167 210.5,194.5C 209.048,195.94 208.048,197.606 207.5,199.5C 199.833,207.833 191.833,215.833 183.5,223.5C 183.703,221.956 184.37,220.622 185.5,219.5C 167.866,206.625 150.2,192.958 132.5,178.5C 131.416,177.335 130.583,176.002 130,174.5C 129.617,175.056 129.117,175.389 128.5,175.5C 134.079,166.919 140.412,158.919 147.5,151.5C 148.167,151.167 148.833,150.833 149.5,150.5 Z"/></g>
<g><path style="opacity:1" fill="#fbca74" d="M 183.5,223.5 C 181.167,226.5 178.5,229.167 175.5,231.5C 173.264,232.389 171.264,233.722 169.5,235.5C 168.904,234.284 168.737,232.951 169,231.5C 160.058,226.136 151.558,219.469 143.5,211.5C 135.154,205.482 126.82,199.482 118.5,193.5C 120.626,187.914 123.293,182.581 126.5,177.5C 126.833,176.5 127.5,175.833 128.5,175.5C 129.117,175.389 129.617,175.056 130,174.5C 130.583,176.002 131.416,177.335 132.5,178.5C 150.2,192.958 167.866,206.625 185.5,219.5C 184.37,220.622 183.703,221.956 183.5,223.5 Z"/></g>
<g><path style="opacity:1" fill="#fad175" d="M 118.5,193.5 C 126.82,199.482 135.154,205.482 143.5,211.5C 151.558,219.469 160.058,226.136 169,231.5C 168.737,232.951 168.904,234.284 169.5,235.5C 171.264,233.722 173.264,232.389 175.5,231.5C 169.5,238.167 163.167,244.5 156.5,250.5C 153.357,246.201 149.357,242.701 144.5,240C 138.516,233.18 131.516,227.68 123.5,223.5C 120.174,221.006 117.34,218.006 115,214.5C 114.502,217.482 114.335,220.482 114.5,223.5C 114.167,223.5 113.833,223.5 113.5,223.5C 113.334,217.824 113.501,212.157 114,206.5C 115.477,202.57 116.644,198.57 117.5,194.5C 117.5,193.833 117.833,193.5 118.5,193.5 Z"/></g>
<g><path style="opacity:1" fill="#f09291" d="M 113.5,223.5 C 113.833,223.5 114.167,223.5 114.5,223.5C 114.989,231.471 116.822,239.137 120,246.5C 124.002,255.175 128.502,263.508 133.5,271.5C 112.167,250.833 91.1667,229.833 70.5,208.5C 71.6765,203.523 73.6765,203.356 76.5,208C 82.9401,210.285 89.2734,212.785 95.5,215.5C 95.8076,216.308 96.3076,216.975 97,217.5C 98.3561,216.62 99.8561,216.286 101.5,216.5C 101.5,217.5 101.5,218.5 101.5,219.5C 104.394,219.958 106.894,219.291 109,217.5C 108.782,219.587 108.949,221.587 109.5,223.5C 110.251,222.624 110.751,221.624 111,220.5C 111.333,221.833 111.667,223.167 112,224.5C 113.107,225.712 113.607,225.379 113.5,223.5 Z"/></g>
<g><path style="opacity:1" fill="#fad875" d="M 156.5,250.5 C 149.703,257.798 142.703,264.965 135.5,272C 134.563,272.692 133.897,272.525 133.5,271.5C 128.502,263.508 124.002,255.175 120,246.5C 116.822,239.137 114.989,231.471 114.5,223.5C 114.335,220.482 114.502,217.482 115,214.5C 117.34,218.006 120.174,221.006 123.5,223.5C 131.516,227.68 138.516,233.18 144.5,240C 149.357,242.701 153.357,246.201 156.5,250.5 Z"/></g>
</svg>
